<svg xmlns="http://www.w3.org/2000/svg" xmlns:xlink="http://www.w3.org/1999/xlink" contentStyleType="text/css" data-diagram-type="DESCRIPTION" height="1228px" preserveAspectRatio="none" style="width:1910px;height:1228px;background:#FFFFFF;" version="1.1" viewBox="0 0 1910 1228" width="1910px" zoomAndPan="magnify"><title>Hybrid_App_Ada - 5-Layer Architecture
Hexagonal (Ports &amp; Adapters) + Clean + DDD</title><defs/><g><g class="title" data-source-line="6"><text fill="#000000" font-family="Verdana" font-size="22" font-weight="bold" lengthAdjust="spacing" textLength="462.4082" x="719.2959" y="37.1182">Hybrid_App_Ada - 5-Layer Architecture</text><text fill="#000000" font-family="Verdana" font-size="22" font-weight="bold" lengthAdjust="spacing" textLength="564.0938" x="668.4531" y="63.8555">Hexagonal (Ports &amp; Adapters) + Clean + DDD</text></g><!--cluster Bootstrap--><g class="cluster" data-entity="Bootstrap" data-source-line="8" data-uid="ent0002" id="cluster_Bootstrap"><path d="M1180.5,85.4746 L1306.9736,85.4746 A3.75,3.75 0 0 1 1309.4736,87.9746 L1316.4736,108.4893 L1489.5,108.4893 A2.5,2.5 0 0 1 1492,110.9893 L1492,239.9646 A2.5,2.5 0 0 1 1489.5,242.4646 L1180.5,242.4646 A2.5,2.5 0 0 1 1178,239.9646 L1178,87.9746 A2.5,2.5 0 0 1 1180.5,85.4746" fill="#FFEBCD" style="stroke:#000000;stroke-width:1;"/><line style="stroke:#000000;stroke-width:1;" x1="1178" x2="1316.4736" y1="108.4893" y2="108.4893"/><text fill="#000000" font-family="Verdana" font-size="14" font-weight="bold" lengthAdjust="spacing" textLength="125.4736" x="1182" y="101.5498">Bootstrap Layer</text></g><!--cluster Presentation--><g class="cluster" data-entity="Presentation" data-source-line="18" data-uid="ent0006" id="cluster_Presentation"><path d="M393.5,282.4646 L543.4961,282.4646 A3.75,3.75 0 0 1 545.9961,284.9646 L552.9961,305.4793 L1089.5,305.4793 A2.5,2.5 0 0 1 1092,307.9793 L1092,436.9646 A2.5,2.5 0 0 1 1089.5,439.4646 L393.5,439.4646 A2.5,2.5 0 0 1 391,436.9646 L391,284.9646 A2.5,2.5 0 0 1 393.5,282.4646" fill="#FFE4E1" style="stroke:#000000;stroke-width:1;"/><line style="stroke:#000000;stroke-width:1;" x1="391" x2="552.9961" y1="305.4793" y2="305.4793"/><text fill="#000000" font-family="Verdana" font-size="14" font-weight="bold" lengthAdjust="spacing" textLength="148.9961" x="395" y="298.5398">Presentation Layer</text></g><!--cluster Infrastructure--><g class="cluster" data-entity="Infrastructure" data-source-line="30" data-uid="ent0012" id="cluster_Infrastructure"><path d="M1143.5,290.3646 L1305.2266,290.3646 A3.75,3.75 0 0 1 1307.7266,292.8646 L1314.7266,313.3793 L1889.5,313.3793 A2.5,2.5 0 0 1 1892,315.8793 L1892,429.0646 A2.5,2.5 0 0 1 1889.5,431.5646 L1143.5,431.5646 A2.5,2.5 0 0 1 1141,429.0646 L1141,292.8646 A2.5,2.5 0 0 1 1143.5,290.3646" fill="#E6F3FF" style="stroke:#000000;stroke-width:1;"/><line style="stroke:#000000;stroke-width:1;" x1="1141" x2="1314.7266" y1="313.3793" y2="313.3793"/><text fill="#000000" font-family="Verdana" font-size="14" font-weight="bold" lengthAdjust="spacing" textLength="160.7266" x="1145" y="306.4398">Infrastructure Layer</text></g><!--cluster Application--><g class="cluster" data-entity="Application" data-source-line="41" data-uid="ent0018" id="cluster_Application"><path d="M13.5,479.4646 L151.2803,479.4646 A3.75,3.75 0 0 1 153.7803,481.9646 L160.7803,502.4793 L928.5,502.4793 A2.5,2.5 0 0 1 931,504.9793 L931,791.3646 A2.5,2.5 0 0 1 928.5,793.8646 L13.5,793.8646 A2.5,2.5 0 0 1 11,791.3646 L11,481.9646 A2.5,2.5 0 0 1 13.5,479.4646" fill="#E8F5E9" style="stroke:#000000;stroke-width:1;"/><line style="stroke:#000000;stroke-width:1;" x1="11" x2="160.7803" y1="502.4793" y2="502.4793"/><text fill="#000000" font-family="Verdana" font-size="14" font-weight="bold" lengthAdjust="spacing" textLength="136.7803" x="15" y="495.5398">Application Layer</text></g><!--cluster Domain--><g class="cluster" data-entity="Domain" data-source-line="58" data-uid="ent0028" id="cluster_Domain"><path d="M973.5,668.4646 L1083.082,668.4646 A3.75,3.75 0 0 1 1085.582,670.9646 L1092.582,691.4793 L1648.5,691.4793 A2.5,2.5 0 0 1 1651,693.9793 L1651,954.1746 A2.5,2.5 0 0 1 1648.5,956.6746 L973.5,956.6746 A2.5,2.5 0 0 1 971,954.1746 L971,670.9646 A2.5,2.5 0 0 1 973.5,668.4646" fill="#FFF9E6" style="stroke:#000000;stroke-width:1;"/><line style="stroke:#000000;stroke-width:1;" x1="971" x2="1092.582" y1="691.4793" y2="691.4793"/><text fill="#000000" font-family="Verdana" font-size="14" font-weight="bold" lengthAdjust="spacing" textLength="108.582" x="975" y="684.5398">Domain Layer</text></g><g class="entity" data-entity="GMN3" data-source-line="10" data-uid="ent0004" id="entity_GMN3"><path d="M1202.26,129.4746 L1202.26,218.4712 L1403.7493,218.4712 L1403.7493,139.4746 L1393.7493,129.4746 L1202.26,129.4746" fill="#FFFFFF" style="stroke:#000000;stroke-width:1;"/><path d="M1393.7493,129.4746 L1393.7493,139.4746 L1403.7493,139.4746 L1393.7493,129.4746" fill="#FFFFFF" style="stroke:#000000;stroke-width:1;"/><text fill="#000000" font-family="Verdana" font-size="13" font-weight="bold" lengthAdjust="spacing" textLength="129.1938" x="1208.26" y="147.5444">Composition Root</text><text fill="#000000" font-family="Verdana" font-size="13" lengthAdjust="spacing" textLength="159.8848" x="1208.26" y="163.3438">- Wires all dependencies</text><text fill="#000000" font-family="Verdana" font-size="13" lengthAdjust="spacing" textLength="145.7549" x="1208.26" y="179.1431">- Generic instantiation</text><text fill="#000000" font-family="Verdana" font-size="13" lengthAdjust="spacing" textLength="138.6519" x="1208.26" y="194.9424">- Application lifecycle</text><text fill="#000000" font-family="Verdana" font-size="13" lengthAdjust="spacing" textLength="180.4893" x="1208.26" y="210.7417">- Can depend on ALL layers</text></g><!--entity CLI--><g class="entity" data-entity="CLI" data-source-line="19" data-uid="ent0007" id="entity_CLI"><rect fill="#FFFFFF" height="47.0146" rx="2.5" ry="2.5" style="stroke:#000000;stroke-width:1;" width="63.4609" x="743.27" y="347.4646"/><rect fill="#FFFFFF" height="10" style="stroke:#000000;stroke-width:1;" width="15" x="786.7309" y="352.4646"/><rect fill="#FFFFFF" height="2" style="stroke:#000000;stroke-width:1;" width="4" x="784.7309" y="354.4646"/><rect fill="#FFFFFF" height="2" style="stroke:#000000;stroke-width:1;" width="4" x="784.7309" y="358.4646"/><text fill="#000000" font-family="Verdana" font-size="14" lengthAdjust="spacing" textLength="23.4609" x="758.27" y="381.5398">CLI</text></g><!--entity Controllers--><g class="entity" data-entity="Controllers" data-source-line="20" data-uid="ent0008" id="entity_Controllers"><rect fill="#FFFFFF" height="47.0146" rx="2.5" ry="2.5" style="stroke:#000000;stroke-width:1;" width="116.4121" x="886.79" y="347.4646"/><rect fill="#FFFFFF" height="10" style="stroke:#000000;stroke-width:1;" width="15" x="983.2021" y="352.4646"/><rect fill="#FFFFFF" height="2" style="stroke:#000000;stroke-width:1;" width="4" x="981.2021" y="354.4646"/><rect fill="#FFFFFF" height="2" style="stroke:#000000;stroke-width:1;" width="4" x="981.2021" y="358.4646"/><text fill="#000000" font-family="Verdana" font-size="14" lengthAdjust="spacing" textLength="76.4121" x="901.79" y="381.5398">Controllers</text></g><g class="entity" data-entity="GMN9" data-source-line="22" data-uid="ent0010" id="entity_GMN9"><path d="M414.92,326.4646 L414.92,415.4612 L663.0836,415.4612 L663.0836,336.4646 L653.0836,326.4646 L414.92,326.4646" fill="#FFFFFF" style="stroke:#000000;stroke-width:1;"/><path d="M653.0836,326.4646 L653.0836,336.4646 L663.0836,336.4646 L653.0836,326.4646" fill="#FFFFFF" style="stroke:#000000;stroke-width:1;"/><text fill="#000000" font-family="Verdana" font-size="13" font-weight="bold" lengthAdjust="spacing" textLength="123.0684" x="420.92" y="344.5344">Driving Adapters</text><text fill="#000000" font-family="Verdana" font-size="13" lengthAdjust="spacing" textLength="178.1597" x="420.92" y="360.3338">- User interfaces (CLI, API)</text><text fill="#000000" font-family="Verdana" font-size="13" lengthAdjust="spacing" textLength="189.0396" x="420.92" y="376.1331">- Request/response mapping</text><text fill="#000000" font-family="Verdana" font-size="13" lengthAdjust="spacing" textLength="5.9033" x="420.92" y="391.9324">-</text><text fill="#000000" font-family="Verdana" font-size="13" font-weight="bold" lengthAdjust="spacing" textLength="216.6899" x="431.3936" y="391.9324">Depends ONLY on Application</text><text fill="#000000" font-family="Verdana" font-size="13" lengthAdjust="spacing" textLength="5.9033" x="420.92" y="407.7317">-</text><text fill="#000000" font-family="Verdana" font-size="13" font-weight="bold" lengthAdjust="spacing" textLength="174.2114" x="431.3936" y="407.7317">CANNOT access Domain</text></g><!--entity Adapters--><g class="entity" data-entity="Adapters" data-source-line="31" data-uid="ent0013" id="entity_Adapters"><rect fill="#FFFFFF" height="47.0146" rx="2.5" ry="2.5" style="stroke:#000000;stroke-width:1;" width="102.5488" x="1499.73" y="347.4646"/><rect fill="#FFFFFF" height="10" style="stroke:#000000;stroke-width:1;" width="15" x="1582.2788" y="352.4646"/><rect fill="#FFFFFF" height="2" style="stroke:#000000;stroke-width:1;" width="4" x="1580.2788" y="354.4646"/><rect fill="#FFFFFF" height="2" style="stroke:#000000;stroke-width:1;" width="4" x="1580.2788" y="358.4646"/><text fill="#000000" font-family="Verdana" font-size="14" lengthAdjust="spacing" textLength="62.5488" x="1514.73" y="381.5398">Adapters</text></g><!--entity FileSystem--><g class="entity" data-entity="FileSystem" data-source-line="32" data-uid="ent0014" id="entity_FileSystem"><rect fill="#FFFFFF" height="47.0146" rx="2.5" ry="2.5" style="stroke:#000000;stroke-width:1;" width="121.6143" x="1682.19" y="347.4646"/><rect fill="#FFFFFF" height="10" style="stroke:#000000;stroke-width:1;" width="15" x="1783.8043" y="352.4646"/><rect fill="#FFFFFF" height="2" style="stroke:#000000;stroke-width:1;" width="4" x="1781.8043" y="354.4646"/><rect fill="#FFFFFF" height="2" style="stroke:#000000;stroke-width:1;" width="4" x="1781.8043" y="358.4646"/><text fill="#000000" font-family="Verdana" font-size="14" lengthAdjust="spacing" textLength="81.6143" x="1697.19" y="381.5398">File System</text></g><g class="entity" data-entity="GMN15" data-source-line="34" data-uid="ent0016" id="entity_GMN15"><path d="M1164.51,334.3646 L1164.51,407.5619 L1419.4846,407.5619 L1419.4846,344.3646 L1409.4846,334.3646 L1164.51,334.3646" fill="#FFFFFF" style="stroke:#000000;stroke-width:1;"/><path d="M1409.4846,334.3646 L1409.4846,344.3646 L1419.4846,344.3646 L1409.4846,334.3646" fill="#FFFFFF" style="stroke:#000000;stroke-width:1;"/><text fill="#000000" font-family="Verdana" font-size="13" font-weight="bold" lengthAdjust="spacing" textLength="118.168" x="1170.51" y="352.4344">Driven Adapters</text><text fill="#000000" font-family="Verdana" font-size="13" lengthAdjust="spacing" textLength="175.8555" x="1170.51" y="368.2338">- Implements Output Ports</text><text fill="#000000" font-family="Verdana" font-size="13" lengthAdjust="spacing" textLength="191.2168" x="1170.51" y="384.0331">- External system integration</text><text fill="#000000" font-family="Verdana" font-size="13" lengthAdjust="spacing" textLength="233.9746" x="1170.51" y="399.8324">- Depends on Application + Domain</text></g><!--entity UseCases--><g class="entity" data-entity="UseCases" data-source-line="42" data-uid="ent0019" id="entity_UseCases"><rect fill="#FFFFFF" height="47.0146" rx="2.5" ry="2.5" style="stroke:#000000;stroke-width:1;" width="111.9141" x="273.04" y="544.4546"/><rect fill="#FFFFFF" height="10" style="stroke:#000000;stroke-width:1;" width="15" x="364.9541" y="549.4546"/><rect fill="#FFFFFF" height="2" style="stroke:#000000;stroke-width:1;" width="4" x="362.9541" y="551.4546"/><rect fill="#FFFFFF" height="2" style="stroke:#000000;stroke-width:1;" width="4" x="362.9541" y="555.4546"/><text fill="#000000" font-family="Verdana" font-size="14" lengthAdjust="spacing" textLength="71.9141" x="288.04" y="578.5298">Use Cases</text></g><!--entity Ports--><g class="entity" data-entity="Ports" data-source-line="43" data-uid="ent0020" id="entity_Ports"><rect fill="#FFFFFF" height="47.0146" rx="2.5" ry="2.5" style="stroke:#000000;stroke-width:1;" width="75.7246" x="465.14" y="544.4546"/><rect fill="#FFFFFF" height="10" style="stroke:#000000;stroke-width:1;" width="15" x="520.8646" y="549.4546"/><rect fill="#FFFFFF" height="2" style="stroke:#000000;stroke-width:1;" width="4" x="518.8646" y="551.4546"/><rect fill="#FFFFFF" height="2" style="stroke:#000000;stroke-width:1;" width="4" x="518.8646" y="555.4546"/><text fill="#000000" font-family="Verdana" font-size="14" lengthAdjust="spacing" textLength="35.7246" x="480.14" y="578.5298">Ports</text></g><!--entity AppError--><g class="entity" data-entity="AppError" data-source-line="44" data-uid="ent0021" id="entity_AppError"><rect fill="#FFFF99" height="47.0146" rx="2.5" ry="2.5" style="stroke:#000000;stroke-width:1;" width="157.4824" x="35.26" y="544.4546"/><rect fill="#FFFF99" height="10" style="stroke:#000000;stroke-width:1;" width="15" x="172.7424" y="549.4546"/><rect fill="#FFFF99" height="2" style="stroke:#000000;stroke-width:1;" width="4" x="170.7424" y="551.4546"/><rect fill="#FFFF99" height="2" style="stroke:#000000;stroke-width:1;" width="4" x="170.7424" y="555.4546"/><text fill="#000000" font-family="Verdana" font-size="14" lengthAdjust="spacing" textLength="117.4824" x="50.26" y="578.5298">Application.Error</text></g><g class="entity" data-entity="GMN22" data-source-line="46" data-uid="ent0023" id="entity_GMN22"><path d="M621.01,523.4646 L621.01,612.4612 L842.9895,612.4612 L842.9895,533.4646 L832.9895,523.4646 L621.01,523.4646" fill="#FFFFFF" style="stroke:#000000;stroke-width:1;"/><path d="M832.9895,523.4646 L832.9895,533.4646 L842.9895,533.4646 L832.9895,523.4646" fill="#FFFFFF" style="stroke:#000000;stroke-width:1;"/><text fill="#000000" font-family="Verdana" font-size="13" font-weight="bold" lengthAdjust="spacing" textLength="145.355" x="627.01" y="541.5344">Orchestration Layer</text><text fill="#000000" font-family="Verdana" font-size="13" lengthAdjust="spacing" textLength="175.4937" x="627.01" y="557.3338">- Coordinates domain logic</text><text fill="#000000" font-family="Verdana" font-size="13" lengthAdjust="spacing" textLength="187.5098" x="627.01" y="573.1331">- Defines Input/Output Ports</text><text fill="#000000" font-family="Verdana" font-size="13" lengthAdjust="spacing" textLength="176.7568" x="627.01" y="588.9324">- Re-exports Domain types</text><text fill="#000000" font-family="Verdana" font-size="13" lengthAdjust="spacing" textLength="5.9033" x="627.01" y="604.7317">-</text><text fill="#000000" font-family="Verdana" font-size="13" font-weight="bold" lengthAdjust="spacing" textLength="190.5059" x="637.4836" y="604.7317">Depends ONLY on Domain</text></g><g class="entity" data-entity="GMN25" data-source-line="53" data-uid="ent0026" id="entity_GMN25"><path d="M34.62,728.2646 L34.62,769.8632 A0,0 0 0 0 34.62,769.8632 L219.3832,769.8632 A0,0 0 0 0 219.3832,769.8632 L219.3832,738.2646 L209.3832,728.2646 L118,728.2646 L114,591.6446 L110,728.2646 L34.62,728.2646 A0,0 0 0 0 34.62,728.2646" fill="#FFFFFF" style="stroke:#000000;stroke-width:1;"/><path d="M209.3832,728.2646 L209.3832,738.2646 L219.3832,738.2646 L209.3832,728.2646" fill="#FFFFFF" style="stroke:#000000;stroke-width:1;"/><text fill="#000000" font-family="Verdana" font-size="13" lengthAdjust="spacing" textLength="163.7632" x="40.62" y="746.3344">Re-exports Domain.Error</text><text fill="#000000" font-family="Verdana" font-size="13" lengthAdjust="spacing" textLength="141.1211" x="40.62" y="762.1338">for Presentation layer</text></g><!--entity Entities--><g class="entity" data-entity="Entities" data-source-line="59" data-uid="ent0029" id="entity_Entities"><rect fill="#FFFFFF" height="47.0146" rx="2.5" ry="2.5" style="stroke:#000000;stroke-width:1;" width="92.0625" x="1252.97" y="725.5546"/><rect fill="#FFFFFF" height="10" style="stroke:#000000;stroke-width:1;" width="15" x="1325.0325" y="730.5546"/><rect fill="#FFFFFF" height="2" style="stroke:#000000;stroke-width:1;" width="4" x="1323.0325" y="732.5546"/><rect fill="#FFFFFF" height="2" style="stroke:#000000;stroke-width:1;" width="4" x="1323.0325" y="736.5546"/><text fill="#000000" font-family="Verdana" font-size="14" lengthAdjust="spacing" textLength="52.0625" x="1267.97" y="759.6298">Entities</text></g><!--entity VOs--><g class="entity" data-entity="VOs" data-source-line="60" data-uid="ent0030" id="entity_VOs"><rect fill="#FFFFFF" height="47.0146" rx="2.5" ry="2.5" style="stroke:#000000;stroke-width:1;" width="136.9473" x="1425.53" y="725.5546"/><rect fill="#FFFFFF" height="10" style="stroke:#000000;stroke-width:1;" width="15" x="1542.4773" y="730.5546"/><rect fill="#FFFFFF" height="2" style="stroke:#000000;stroke-width:1;" width="4" x="1540.4773" y="732.5546"/><rect fill="#FFFFFF" height="2" style="stroke:#000000;stroke-width:1;" width="4" x="1540.4773" y="736.5546"/><text fill="#000000" font-family="Verdana" font-size="14" lengthAdjust="spacing" textLength="96.9473" x="1440.53" y="759.6298">Value Objects</text></g><!--entity DomainError--><g class="entity" data-entity="DomainError" data-source-line="61" data-uid="ent0031" id="entity_DomainError"><rect fill="#FFFFFF" height="47.0146" rx="2.5" ry="2.5" style="stroke:#000000;stroke-width:1;" width="134.377" x="1231.81" y="885.6646"/><rect fill="#FFFFFF" height="10" style="stroke:#000000;stroke-width:1;" width="15" x="1346.187" y="890.6646"/><rect fill="#FFFFFF" height="2" style="stroke:#000000;stroke-width:1;" width="4" x="1344.187" y="892.6646"/><rect fill="#FFFFFF" height="2" style="stroke:#000000;stroke-width:1;" width="4" x="1344.187" y="896.6646"/><text fill="#000000" font-family="Verdana" font-size="14" lengthAdjust="spacing" textLength="94.377" x="1246.81" y="919.7398">Domain.Error</text></g><g class="entity" data-entity="GMN32" data-source-line="63" data-uid="ent0033" id="entity_GMN32"><path d="M994.8,712.4646 L994.8,785.6619 L1173.1901,785.6619 L1173.1901,722.4646 L1163.1901,712.4646 L994.8,712.4646" fill="#FFFFFF" style="stroke:#000000;stroke-width:1;"/><path d="M1163.1901,712.4646 L1163.1901,722.4646 L1173.1901,722.4646 L1163.1901,712.4646" fill="#FFFFFF" style="stroke:#000000;stroke-width:1;"/><text fill="#000000" font-family="Verdana" font-size="13" font-weight="bold" lengthAdjust="spacing" textLength="145.3423" x="1000.8" y="730.5344">Business Logic Core</text><text fill="#000000" font-family="Verdana" font-size="13" lengthAdjust="spacing" textLength="154.6099" x="1000.8" y="746.3338">- Pure domain concepts</text><text fill="#000000" font-family="Verdana" font-size="13" lengthAdjust="spacing" textLength="133.9736" x="1000.8" y="762.1331">- Zero dependencies</text><text fill="#000000" font-family="Verdana" font-size="13" lengthAdjust="spacing" textLength="157.3901" x="1000.8" y="777.9324">- Shareable across apps</text></g><!--link Bootstrap to GMN3--><g class="link" data-entity-1="Bootstrap" data-entity-2="GMN3" data-source-line="10" data-uid="lnk5" id="link_Bootstrap_GMN3"><path d="M1483.19,173.6746 C1477.47,173.6746 1442.12,173.6746 1404.23,173.6746" fill="none" id="Bootstrap-GMN3" style="stroke:#000000;stroke-width:1;stroke-dasharray:7,7;"/></g><!--link Presentation to GMN9--><g class="link" data-entity-1="Presentation" data-entity-2="GMN9" data-source-line="22" data-uid="lnk11" id="link_Presentation_GMN9"><path d="M1083.29,370.6746 C1077.86,370.6746 1043.1,370.6746 1043.1,370.6746 C1043.1,370.6746 1043.1,400.6746 1043.1,400.6746 C1043.1,400.6746 812.56,400.6746 663.29,400.6746" fill="none" id="Presentation-GMN9" style="stroke:#000000;stroke-width:1;stroke-dasharray:7,7;"/></g><!--link Infrastructure to GMN15--><g class="link" data-entity-1="Infrastructure" data-entity-2="GMN15" data-source-line="34" data-uid="lnk17" id="link_Infrastructure_GMN15"><path d="M1883.3,370.6746 C1877.9,370.6746 1843.4,370.6746 1843.4,370.6746 C1843.4,370.6746 1843.4,400.6746 1843.4,400.6746 C1843.4,400.6746 1582.78,400.6746 1419.89,400.6746" fill="none" id="Infrastructure-GMN15" style="stroke:#000000;stroke-width:1;stroke-dasharray:7,7;"/></g><!--link Application to GMN22--><g class="link" data-entity-1="Application" data-entity-2="GMN22" data-source-line="46" data-uid="lnk24" id="link_Application_GMN22"><path d="M922.45,567.6746 C917.67,567.6746 882.29,567.6746 843.29,567.6746" fill="none" id="Application-GMN22" style="stroke:#000000;stroke-width:1;stroke-dasharray:7,7;"/></g><!--link Domain to GMN32--><g class="link" data-entity-1="Domain" data-entity-2="GMN32" data-source-line="63" data-uid="lnk34" id="link_Domain_GMN32"><path d="M1643,748.3146 C1643,743.6346 1643,718.6746 1643,718.6746 C1643,718.6746 1331.42,718.6746 1173.5,718.6746" fill="none" id="Domain-GMN32" style="stroke:#000000;stroke-width:1;stroke-dasharray:7,7;"/></g><!--link Bootstrap to Presentation--><g class="link" data-entity-1="Bootstrap" data-entity-2="Presentation" data-source-line="71" data-uid="lnk35" id="link_Bootstrap_Presentation"><path d="M1483.67,242.8185 C1483.67,247.4932 1483.67,252.2137 1483.67,256.9121 C1483.67,294.4996 1483.67,330.6746 1483.67,330.6746 C1483.67,330.6746 1383.7525,330.6746 1283.835,330.6746 C1233.8763,330.6746 1183.9175,330.6746 1146.4484,330.6746 C1127.7139,330.6746 1112.1018,330.6746 1101.1733,330.6746 C1098.4412,330.6746 1096.0018,330.6746 1093.8795,330.6746 C1093.349,330.6746 1098.8382,330.6746 1098.3477,330.6746" fill="none" id="Bootstrap-to-Presentation" style="stroke:#000000;stroke-width:1;"/><polygon fill="#000000" points="1092.3477,330.6746,1101.3477,334.6746,1097.3477,330.6746,1101.3477,326.6746,1092.3477,330.6746" style="stroke:#000000;stroke-width:1;"/><text fill="#000000" font-family="Verdana" font-size="13" lengthAdjust="spacing" textLength="34.271" x="1307.04" y="327.7444">wires</text></g><!--link Bootstrap to Infrastructure--><g class="link" data-entity-1="Bootstrap" data-entity-2="Infrastructure" data-source-line="72" data-uid="lnk36" id="link_Bootstrap_Infrastructure"><path d="M1492.0814,173.6746 C1495.8576,173.6746 1500.8721,173.6746 1506.9431,173.6746 C1519.0851,173.6746 1535.453,173.6746 1554.5916,173.6746 C1592.8688,173.6746 1642.2288,173.6746 1691.03,173.6746 C1788.6325,173.6746 1884,173.6746 1884,173.6746 C1884,173.6746 1884,219.9646 1884,267.7009 C1884,273.6679 1884,279.6575 1884,285.5822 C1884,287.0633 1884,305.5551 1884,307.0267" fill="none" id="Bootstrap-to-Infrastructure" style="stroke:#000000;stroke-width:1;"/><polygon fill="#000000" points="1884,313.0267,1888,304.0267,1884,308.0267,1880,304.0267,1884,313.0267" style="stroke:#000000;stroke-width:1;"/><text fill="#000000" font-family="Verdana" font-size="13" lengthAdjust="spacing" textLength="34.271" x="1747.69" y="170.7444">wires</text></g><!--link Bootstrap to Application--><g class="link" data-entity-1="Bootstrap" data-entity-2="Application" data-source-line="73" data-uid="lnk37" id="link_Bootstrap_Application"><path d="M1484.33,243.1241 C1484.33,243.9497 1484.33,244.7792 1484.33,245.6124 C1484.33,248.9453 1484.33,252.3373 1484.33,255.7752 C1484.33,269.527 1484.33,284.014 1484.33,298.3921 C1484.33,355.9046 1484.33,411.6746 1484.33,411.6746 C1484.33,411.6746 923,411.6746 923,411.6746 C923,411.6746 923,420.6946 923,434.4007 C923,441.2537 923,449.2783 923,457.9327 C923,462.2599 923,466.7445 923,471.3188 C923,473.606 923,475.9156 923,478.2392 C923,478.5296 923,495.835 923,496.1258" fill="none" id="Bootstrap-to-Application" style="stroke:#000000;stroke-width:1;"/><polygon fill="#000000" points="923,502.1258,927,493.1258,923,497.1258,919,493.1258,923,502.1258" style="stroke:#000000;stroke-width:1;"/><text fill="#000000" font-family="Verdana" font-size="13" lengthAdjust="spacing" textLength="34.271" x="1209.38" y="425.7444">wires</text></g><!--link Bootstrap to Domain--><g class="link" data-entity-1="Bootstrap" data-entity-2="Domain" data-source-line="74" data-uid="lnk38" id="link_Bootstrap_Domain"><path d="M1492.2276,151.6746 C1492.5004,151.6746 1492.7792,151.6746 1493.0638,151.6746 C1494.202,151.6746 1495.433,151.6746 1496.7483,151.6746 C1499.3789,151.6746 1502.3467,151.6746 1505.5844,151.6746 C1518.535,151.6746 1535.8025,151.6746 1553.07,151.6746 C1587.605,151.6746 1622.14,151.6746 1622.14,151.6746 C1622.14,151.6746 1622.14,301.1746 1622.14,450.6746 C1622.14,525.4246 1622.14,600.1746 1622.14,656.2371 C1622.14,659.741 1622.14,680.1866 1622.14,683.5399" fill="none" id="Bootstrap-to-Domain" style="stroke:#000000;stroke-width:1;"/><polygon fill="#000000" points="1622.14,689.5399,1626.14,680.5399,1622.14,684.5399,1618.14,680.5399,1622.14,689.5399" style="stroke:#000000;stroke-width:1;"/><text fill="#000000" font-family="Verdana" font-size="13" lengthAdjust="spacing" textLength="34.271" x="1623.14" y="377.9744">wires</text></g><!--link Presentation to Application--><g class="link" data-entity-1="Presentation" data-entity-2="Application" data-source-line="76" data-uid="lnk39" id="link_Presentation_Application"><path d="M1083.67,439.7344 C1083.67,440.0912 1083.67,440.4486 1083.67,440.8065 C1083.67,441.5223 1083.67,442.2404 1083.67,442.9604 C1083.67,444.4006 1083.67,445.8488 1083.67,447.3039 C1083.67,450.214 1083.67,453.1512 1083.67,456.1046 C1083.67,462.0114 1083.67,467.983 1083.67,473.9321 C1083.67,521.5246 1083.67,567.6746 1083.67,567.6746 C1083.67,567.6746 1046.58,567.6746 1008.0413,567.6746 C988.7719,567.6746 969.1403,567.6746 953.6017,567.6746 C945.8324,567.6746 939.0864,567.6746 933.9204,567.6746 C933.2747,567.6746 932.6537,567.6746 932.0584,567.6746 C931.7608,567.6746 937.4696,567.6746 937.1849,567.6746" fill="none" id="Presentation-to-Application" style="stroke:#000000;stroke-width:1;"/><polygon fill="#000000" points="931.1849,567.6746,940.1849,571.6746,936.1849,567.6746,940.1849,563.6746,931.1849,567.6746" style="stroke:#000000;stroke-width:1;"/><text fill="#000000" font-family="Verdana" font-size="13" lengthAdjust="spacing" textLength="105.9487" x="958.2845" y="530.6444">calls Input Ports</text><text fill="#000000" font-family="Verdana" font-size="13" lengthAdjust="spacing" textLength="143.1777" x="939.67" y="546.4438">uses Application.Error</text></g><!--link Presentation to Domain--><!--link Presentation to Domain--><g class="link" data-entity-1="Presentation" data-entity-2="Domain" data-source-line="92" data-uid="lnk44" id="link_Presentation_Domain"><path d="M1084.33,439.5044 C1084.33,440.2812 1084.33,441.0612 1084.33,441.8443 C1084.33,443.4103 1084.33,444.9886 1084.33,446.5774 C1084.33,459.2883 1084.33,472.6787 1084.33,485.9684 C1084.33,539.1271 1084.33,590.6746 1084.33,590.6746 C1084.33,590.6746 1575.74,590.6746 1575.74,590.6746 C1575.74,590.6746 1575.74,601.3621 1575.74,617.3934 C1575.74,625.409 1575.74,634.7605 1575.74,644.7801 C1575.74,649.7898 1575.74,654.9666 1575.74,660.2269 C1575.74,662.857 1575.74,682.5226 1575.74,685.1841" fill="none" id="Presentation-to-Domain-1" style="stroke:#FF0000;stroke-width:1;stroke-dasharray:7,7;"/><polygon fill="#FF0000" points="1575.74,691.1841,1579.74,682.1841,1575.74,686.1841,1571.74,682.1841,1575.74,691.1841" style="stroke:#FF0000;stroke-width:1;"/><text fill="#000000" font-family="Verdana" font-size="13" lengthAdjust="spacing" textLength="100.6748" x="1229.7782" y="571.7444">&#10060; FORBIDDEN</text><text fill="#000000" font-family="Verdana" font-size="13" lengthAdjust="spacing" textLength="130.5713" x="1214.83" y="587.5438">No transitive access</text></g><!--link Infrastructure to Application--><g class="link" data-entity-1="Infrastructure" data-entity-2="Application" data-source-line="79" data-uid="lnk41" id="link_Infrastructure_Application"><path d="M1892.0184,370.6746 C1892.1515,370.6746 1892.2849,370.6746 1892.4187,370.6746 C1892.6861,370.6746 1892.9547,370.6746 1893.2236,370.6746 C1893.7615,370.6746 1894.3005,370.6746 1894.8338,370.6746 C1899.1,370.6746 1903,370.6746 1903,370.6746 C1903,370.6746 1903,568.6746 1903,568.6746 C1903,568.6746 1663.7075,568.6746 1421.6113,568.6746 C1300.5631,568.6746 1178.8141,568.6746 1085.9252,568.6746 C1039.4807,568.6746 1000.2513,568.6746 971.9321,568.6746 C957.7724,568.6746 946.3404,568.6746 938.0977,568.6746 C936.0371,568.6746 934.1757,568.6746 932.521,568.6746 C932.1073,568.6746 937.7065,568.6746 937.3187,568.6746" fill="none" id="Infrastructure-to-Application" style="stroke:#000000;stroke-width:1;"/><polygon fill="#000000" points="931.3187,568.6746,940.3187,572.6746,936.3187,568.6746,940.3187,564.6746,931.3187,568.6746" style="stroke:#000000;stroke-width:1;"/><text fill="#000000" font-family="Verdana" font-size="13" lengthAdjust="spacing" textLength="163.4775" x="1357.47" y="565.7444">implements Output Ports</text></g><!--link Infrastructure to Domain--><g class="link" data-entity-1="Infrastructure" data-entity-2="Domain" data-source-line="80" data-uid="lnk42" id="link_Infrastructure_Domain"><path d="M1884,432.6136 C1884,433.1627 1884,433.7144 1884,434.2687 C1884,435.3774 1884,436.4967 1884,437.6262 C1884,473.7696 1884,520.3784 1884,566.4596 C1884,658.6221 1884,748.6746 1884,748.6746 C1884,748.6746 1827.4575,748.6746 1769.1475,748.6746 C1739.9925,748.6746 1710.3956,748.6746 1687.2038,748.6746 C1675.6078,748.6746 1665.6131,748.6746 1658.0755,748.6746 C1656.1912,748.6746 1654.4603,748.6746 1652.8964,748.6746 C1652.5055,748.6746 1652.1249,748.6746 1651.755,748.6746 C1651.5701,748.6746 1657.3878,748.6746 1657.2082,748.6746" fill="none" id="Infrastructure-to-Domain" style="stroke:#000000;stroke-width:1;"/><polygon fill="#000000" points="1651.2082,748.6746,1660.2082,752.6746,1656.2082,748.6746,1660.2082,744.6746,1651.2082,748.6746" style="stroke:#000000;stroke-width:1;"/><text fill="#000000" font-family="Verdana" font-size="13" lengthAdjust="spacing" textLength="114.2261" x="1769" y="677.3544">uses Entities/VOs</text></g><!--link Application to Domain--><g class="link" data-entity-1="Application" data-entity-2="Domain" data-source-line="82" data-uid="lnk43" id="link_Application_Domain"><path d="M923,793.9184 C923,794.6777 923,795.4293 923,796.173 C923,819.9721 923,835.6746 923,835.6746 C923,835.6746 934.2448,835.6746 953.9233,835.6746 C958.8429,835.6746 958.2897,835.6746 964.2196,835.6746" fill="none" id="Application-to-Domain" style="stroke:#000000;stroke-width:1;"/><polygon fill="#000000" points="970.2196,835.6746,961.2196,831.6746,965.2196,835.6746,961.2196,839.6746,970.2196,835.6746" style="stroke:#000000;stroke-width:1;"/><text fill="#000000" font-family="Verdana" font-size="13" lengthAdjust="spacing" textLength="81.0723" x="1064.587" y="849.7444">orchestrates</text><path d="M1022.39,858.4739 L1022.39,915.4739 L1187.39,915.4739 L1187.39,868.4739 L1177.39,858.4739 L1022.39,858.4739" fill="#FFFFFF" style="stroke:#000000;stroke-width:1;"/><path d="M1177.39,858.4739 L1177.39,868.4739 L1187.39,868.4739 L1177.39,858.4739" fill="#FFFFFF" style="stroke:#000000;stroke-width:1;"/><text fill="#000000" font-family="Verdana" font-size="13" lengthAdjust="spacing" textLength="86.2529" x="1028.39" y="876.5438">&#9989; ALLOWED</text><text fill="#000000" font-family="Verdana" font-size="13" lengthAdjust="spacing" textLength="144.4663" x="1028.39" y="892.3431">Uses Application.Error</text><text fill="#000000" font-family="Verdana" font-size="13" lengthAdjust="spacing" textLength="125.252" x="1028.39" y="908.1424">(not Domain.Error)</text></g><g class="legend" data-source-line="94"><rect fill="none" height="248.2051" rx="7.5" ry="7.5" style="stroke:#000000;stroke-width:1;" width="444" x="1447" y="967.6746"/><text fill="#000000" font-family="Verdana" font-size="14" font-weight="bold" lengthAdjust="spacing" textLength="184.2695" x="1452" y="986.7498">Key Architectural Rules</text><text fill="#000000" font-family="Verdana" font-size="14" lengthAdjust="spacing" textLength="434" x="1452" y="1003.7645">&#9552;&#9552;&#9552;&#9552;&#9552;&#9552;&#9552;&#9552;&#9552;&#9552;&#9552;&#9552;&#9552;&#9552;&#9552;&#9552;&#9552;&#9552;&#9552;&#9552;&#9552;&#9552;&#9552;&#9552;&#9552;&#9552;&#9552;&#9552;&#9552;&#9552;&#9552;</text><text fill="#000000" font-family="Verdana" font-size="14" lengthAdjust="spacing" textLength="19" x="1452" y="1020.7791">&#9989;</text><text fill="#000000" font-family="Verdana" font-size="14" font-weight="bold" lengthAdjust="spacing" textLength="260.2715" x="1475.9219" y="1020.7791">Presentation &#8594; Application ONLY</text><text fill="#000000" font-family="Verdana" font-size="14" lengthAdjust="spacing" textLength="210.6494" x="1466.7656" y="1037.7938">(no transitive Domain access)</text><text fill="#000000" font-family="Verdana" font-size="14" lengthAdjust="spacing" textLength="297.8789" x="1452" y="1054.8084">&#9989; Infrastructure &#8594; Application + Domain</text><text fill="#000000" font-family="Verdana" font-size="14" lengthAdjust="spacing" textLength="178.8926" x="1452" y="1071.823">&#9989; Application &#8594; Domain</text><text fill="#000000" font-family="Verdana" font-size="14" lengthAdjust="spacing" textLength="276.4688" x="1452" y="1088.8377">&#9989; Bootstrap &#8594; ALL (composition root)</text><text fill="#000000" font-family="Verdana" font-size="14" lengthAdjust="spacing" textLength="4.9219" x="1452" y="1105.8523">&#160;</text><text fill="#000000" font-family="Verdana" font-size="14" lengthAdjust="spacing" textLength="19" x="1452" y="1122.867">&#10060;</text><text fill="#000000" font-family="Verdana" font-size="14" font-weight="bold" lengthAdjust="spacing" textLength="23.7549" x="1475.9219" y="1122.867">NO</text><text fill="#000000" font-family="Verdana" font-size="14" lengthAdjust="spacing" textLength="165.7441" x="1504.5986" y="1122.867">Presentation &#8594; Domain</text><text fill="#000000" font-family="Verdana" font-size="14" lengthAdjust="spacing" textLength="19" x="1452" y="1139.8816">&#10060;</text><text fill="#000000" font-family="Verdana" font-size="14" font-weight="bold" lengthAdjust="spacing" textLength="23.7549" x="1475.9219" y="1139.8816">NO</text><text fill="#000000" font-family="Verdana" font-size="14" lengthAdjust="spacing" textLength="208.243" x="1504.5986" y="1139.8816">Presentation &#8596; Infrastructure</text><text fill="#000000" font-family="Verdana" font-size="14" lengthAdjust="spacing" textLength="19" x="1452" y="1156.8963">&#10060;</text><text fill="#000000" font-family="Verdana" font-size="14" font-weight="bold" lengthAdjust="spacing" textLength="23.7549" x="1475.9219" y="1156.8963">NO</text><text fill="#000000" font-family="Verdana" font-size="14" lengthAdjust="spacing" textLength="139.207" x="1504.5986" y="1156.8963">Domain &#8594; anything</text><text fill="#000000" font-family="Verdana" font-size="14" lengthAdjust="spacing" textLength="4.9219" x="1452" y="1173.9109">&#160;</text><text fill="#000000" font-family="Verdana" font-size="14" font-weight="bold" lengthAdjust="spacing" textLength="282.4268" x="1452" y="1190.9256">Domain is the ONLY shareable layer</text><text fill="#000000" font-family="Verdana" font-size="14" lengthAdjust="spacing" textLength="194.4346" x="1452" y="1207.9402">across multiple applications</text></g><!--SRC=[jLPHZ-Cq47xFhnXs9MvRwDwUu4wtF21rs-IkecfNFUvMm2BaJQQjsTGEjdEt5U8HddX02DxWp-qlOUouYPEsZqYLAdl6C_w- -MQSZymQDmX5phY8z3qN1LDi0paNQBO5WbHcBGE3a1bgBE3bHR2fcBYtcyykBgB8S9CZlE6R8iSVNc_l5CzW0Cy7KxP51KELhhd1r9GARyLhV60hALWEPzUKISF7CCnOOL3f7dm2enoPeF_nU1n51KllsGhXv4fAeurY1RYG9y0qD7kdIH9VZSRmSmHqMOEW-6fjG2uR7x80zFiZkIcavePB0GkozVlEC80Rhb03otF8i42HeKWvQczyXG8LJu4BRPWmdDdptZOiYfodReSON6AwJNFqjX4XgS81MOVJAUJszZQitRDNZNu9K5xJ7L2OAbW3jBLjiNuUFtDOKuj6a0bEHjE9ywN_Za4AesIUKzhAeLdliHKcyeID5N_FnQekKKtOMqsLvOBsbYmbwiueywSml9xqlCC2VofHcwSKa-wY4JQiA2YKDrDenuo6-MpwZUEdORBEGXKRpcRphu6bb4J3M6v8jCvyaC69M2f61I-Ts08EEuRJ-4NoMP9qMToXT4TsYxPBmgtIjzhWnddPTRNSexETCo0KnJwV4zix6qf1X9IcA0suxl3M-86SRSzebyeHlrAX3dTijecqZUGeEqPOwDkm5UwUnY-Jv_5bboggF-bROyKLhToYxUCGL1BsM4AkcnpdiLAopkmMLkT9SdcvHsfmp3Cwf_62jiaR43Mh8obLnWKpfD3C4G6vNF6q9cr9Gy-gWmX_Ue3t1GxmeN1Zgk8Hx8JKHpLyI9yUmPqqHcuy18VHHTdBSDxObiH3g_dT-3XMId_1fef-mp9v6R_e5Z2cGMQuhzzkqNPvn_8IONxt8ytkok_TlECItZb8kiFGhbqjHLksgr9RxZLCRK6eKWhhibtR7lNrIgL8iQWhyYqgUMX6lrapXUoEcfEbIb9OcZRTGVl4Tqbrq0vl6ic5f6Q2oUnck1Z3MOfsf0qq8hrqgrxKF3A3J7uGWo_R1Va2FjY7uu1RP-0STmnxxRYNh-NE8MhTud2eb5upB-rAqxUYf1Q5lSRh1FjkpJEYwFjMvYZg03gSan-POaSErwZSnNOYV6fL5eM1z_nbtVEMZ2SmKdII05ENbI9Zokh2QS-zokAUXF3upw-stlERU4ohjuUP03YZOwrEx4MrX2XH8jMTewVHuBRDtxcJ-tbzsLE56TtuyT_V8PalhYRZSJox5JC9T7jXFqNUet_TeYZ7bKtc8aIsIRx2RVZvH00NPOxLg_7uzn__tyyJrk-ti3t-zcUhu7Ri-QQrn8MGFFeAMS-7wyYW6ovuh5or0fDrRHcR5d5Hg97Fqk3ZJf6v5rbVuhtVdytxVTY3qWGywlJN_YiUE7kGDXOJMxEsdpUkRjx0DT2tTlKww7f0vVKJvKVLfimDB-peQX1hAxjA3z5_]--></g></svg>