<svg xmlns="http://www.w3.org/2000/svg" xmlns:xlink="http://www.w3.org/1999/xlink" contentStyleType="text/css" data-diagram-type="CLASS" height="1266px" preserveAspectRatio="none" style="width:1396px;height:1266px;background:#FFFFFF;" version="1.1" viewBox="0 0 1396 1266" width="1396px" zoomAndPan="magnify"><title>Application.Error Re-export Pattern
Preventing Transitive Domain Access</title><defs/><g><g class="title" data-source-line="3"><text fill="#000000" font-family="Verdana" font-size="22" font-weight="bold" lengthAdjust="spacing" textLength="440" x="473.5" y="37.1182">Application.Error Re-export Pattern</text><text fill="#000000" font-family="Verdana" font-size="22" font-weight="bold" lengthAdjust="spacing" textLength="458.9385" x="464.0308" y="63.8555">Preventing Transitive Domain Access</text></g><!--cluster Domain--><g class="cluster" data-entity="Domain" data-source-line="5" data-uid="ent0002" id="cluster_Domain"><path d="M567.5,85.4746 L677.082,85.4746 A3.75,3.75 0 0 1 679.582,87.9746 L686.582,108.4893 L834.5,108.4893 A2.5,2.5 0 0 1 837,110.9893 L837,247.0246 A2.5,2.5 0 0 1 834.5,249.5246 L567.5,249.5246 A2.5,2.5 0 0 1 565,247.0246 L565,87.9746 A2.5,2.5 0 0 1 567.5,85.4746" fill="#FFF9E6" style="stroke:#000000;stroke-width:1;"/><line style="stroke:#000000;stroke-width:1;" x1="565" x2="686.582" y1="108.4893" y2="108.4893"/><text fill="#000000" font-family="Verdana" font-size="14" font-weight="bold" lengthAdjust="spacing" textLength="108.582" x="569" y="101.5498">Domain Layer</text></g><!--cluster Application--><g class="cluster" data-entity="Application" data-source-line="15" data-uid="ent0004" id="cluster_Application"><path d="M352.5,397.6746 L490.2803,397.6746 A3.75,3.75 0 0 1 492.7803,400.1746 L499.7803,420.6893 L641.5,420.6893 A2.5,2.5 0 0 1 644,423.1893 L644,939.1246 A2.5,2.5 0 0 1 641.5,941.6246 L352.5,941.6246 A2.5,2.5 0 0 1 350,939.1246 L350,400.1746 A2.5,2.5 0 0 1 352.5,397.6746" fill="#E8F5E9" style="stroke:#000000;stroke-width:1;"/><line style="stroke:#000000;stroke-width:1;" x1="350" x2="499.7803" y1="420.6893" y2="420.6893"/><text fill="#000000" font-family="Verdana" font-size="14" font-weight="bold" lengthAdjust="spacing" textLength="136.7803" x="354" y="413.7498">Application Layer</text></g><!--cluster Presentation--><g class="cluster" data-entity="Presentation" data-source-line="34" data-uid="ent0007" id="cluster_Presentation"><path d="M93.5,93.9746 L243.4961,93.9746 A3.75,3.75 0 0 1 245.9961,96.4746 L252.9961,116.9893 L386.5,116.9893 A2.5,2.5 0 0 1 389,119.4893 L389,238.5246 A2.5,2.5 0 0 1 386.5,241.0246 L93.5,241.0246 A2.5,2.5 0 0 1 91,238.5246 L91,96.4746 A2.5,2.5 0 0 1 93.5,93.9746" fill="#FFE4E1" style="stroke:#000000;stroke-width:1;"/><line style="stroke:#000000;stroke-width:1;" x1="91" x2="252.9961" y1="116.9893" y2="116.9893"/><text fill="#000000" font-family="Verdana" font-size="14" font-weight="bold" lengthAdjust="spacing" textLength="148.9961" x="95" y="110.0498">Presentation Layer</text></g><!--cluster Infrastructure--><g class="cluster" data-entity="Infrastructure" data-source-line="43" data-uid="ent0009" id="cluster_Infrastructure"><path d="M670.5,431.6946 L832.2266,431.6946 A3.75,3.75 0 0 1 834.7266,434.1946 L841.7266,454.7093 L995.5,454.7093 A2.5,2.5 0 0 1 998,457.2093 L998,576.2446 A2.5,2.5 0 0 1 995.5,578.7446 L670.5,578.7446 A2.5,2.5 0 0 1 668,576.2446 L668,434.1946 A2.5,2.5 0 0 1 670.5,431.6946" fill="#E6F3FF" style="stroke:#000000;stroke-width:1;"/><line style="stroke:#000000;stroke-width:1;" x1="668" x2="841.7266" y1="454.7093" y2="454.7093"/><text fill="#000000" font-family="Verdana" font-size="14" font-weight="bold" lengthAdjust="spacing" textLength="160.7266" x="672" y="447.7698">Infrastructure Layer</text></g><!--class DomainError--><g class="entity" data-entity="DomainError" data-source-line="6" data-uid="ent0003" id="entity_DomainError"><rect fill="#FFFFFF" height="112.0586" rx="2.5" ry="2.5" style="stroke:#000000;stroke-width:1;" width="240.0088" x="581" y="121.4746"/><ellipse cx="650.0659" cy="135.4746" fill="#FFFFFF" rx="9" ry="9" style="stroke:#000000;stroke-width:1;"/><path d="M652.5391,141.6177 Q651.958,141.9165 651.3188,142.0659 Q650.6797,142.2153 649.9741,142.2153 Q647.4673,142.2153 646.1475,140.5635 Q644.8276,138.9116 644.8276,135.7905 Q644.8276,132.6611 646.1475,131.0093 Q647.4673,129.3574 649.9741,129.3574 Q650.6797,129.3574 651.3271,129.5068 Q651.9746,129.6563 652.5391,129.9551 L652.5391,132.6777 Q651.9082,132.0967 651.3147,131.8269 Q650.7212,131.5571 650.0903,131.5571 Q648.7456,131.5571 648.0608,132.6238 Q647.376,133.6904 647.376,135.7905 Q647.376,137.8823 648.0608,138.949 Q648.7456,140.0156 650.0903,140.0156 Q650.7212,140.0156 651.3147,139.7458 Q651.9082,139.4761 652.5391,138.895 Z " fill="#000000"/><text fill="#000000" font-family="Verdana" font-size="14" lengthAdjust="spacing" textLength="94.377" x="667.5659" y="141.0425">Domain.Error</text><line style="stroke:#000000;stroke-width:1;" x1="582" x2="820.0088" y1="149.4746" y2="149.4746"/><ellipse cx="592" cy="163.4819" fill="none" rx="3" ry="3" style="stroke:#000000;stroke-width:1;"/><text fill="#000000" font-family="Verdana" font-size="14" lengthAdjust="spacing" textLength="139.1523" x="599" y="167.5498">Error_Type : record</text><ellipse cx="592" cy="180.4966" fill="none" rx="3" ry="3" style="stroke:#000000;stroke-width:1;"/><text fill="#000000" font-family="Verdana" font-size="14" lengthAdjust="spacing" textLength="131.1748" x="599" y="184.5645">Error_Kind : enum</text><ellipse cx="592" cy="197.5112" fill="none" rx="3" ry="3" style="stroke:#000000;stroke-width:1;"/><text fill="#000000" font-family="Verdana" font-size="14" lengthAdjust="spacing" textLength="216.0088" x="599" y="201.5791">Error_Strings : bounded string</text><line style="stroke:#000000;stroke-width:1;" x1="582" x2="820.0088" y1="208.5186" y2="208.5186"/><text fill="#000000" font-family="Verdana" font-size="14" lengthAdjust="spacing" textLength="184.9258" x="587" y="226.5938">Canonical error definitions</text></g><!--class AppError--><g class="entity" data-entity="AppError" data-source-line="16" data-uid="ent0005" id="entity_AppError"><rect fill="#FFFFFF" height="163.1025" rx="2.5" ry="2.5" style="stroke:#000000;stroke-width:1;" width="262.6123" x="365.69" y="433.6746"/><ellipse cx="434.5049" cy="447.6746" fill="#FFFFFF" rx="9" ry="9" style="stroke:#000000;stroke-width:1;"/><path d="M436.9781,453.8177 Q436.397,454.1165 435.7579,454.2659 Q435.1187,454.4153 434.4131,454.4153 Q431.9063,454.4153 430.5865,452.7635 Q429.2667,451.1116 429.2667,447.9905 Q429.2667,444.8611 430.5865,443.2093 Q431.9063,441.5574 434.4131,441.5574 Q435.1187,441.5574 435.7662,441.7068 Q436.4136,441.8563 436.9781,442.1551 L436.9781,444.8777 Q436.3472,444.2967 435.7537,444.0269 Q435.1602,443.7571 434.5294,443.7571 Q433.1846,443.7571 432.4998,444.8238 Q431.815,445.8904 431.815,447.9905 Q431.815,450.0823 432.4998,451.149 Q433.1846,452.2156 434.5294,452.2156 Q435.1602,452.2156 435.7537,451.9458 Q436.3472,451.6761 436.9781,451.095 Z " fill="#000000"/><text fill="#000000" font-family="Verdana" font-size="14" lengthAdjust="spacing" textLength="117.4824" x="452.0049" y="453.2425">Application.Error</text><line style="stroke:#000000;stroke-width:1;" x1="366.69" x2="627.3023" y1="461.6746" y2="461.6746"/><ellipse cx="376.69" cy="475.6819" fill="none" rx="3" ry="3" style="stroke:#000000;stroke-width:1;"/><text fill="#000000" font-family="Verdana" font-size="14" lengthAdjust="spacing" textLength="150.0898" x="383.69" y="479.7498">Error_Type : subtype</text><ellipse cx="376.69" cy="492.6966" fill="none" rx="3" ry="3" style="stroke:#000000;stroke-width:1;"/><text fill="#000000" font-family="Verdana" font-size="14" lengthAdjust="spacing" textLength="147.2393" x="383.69" y="496.7645">Error_Kind : subtype</text><ellipse cx="376.69" cy="509.7112" fill="none" rx="3" ry="3" style="stroke:#000000;stroke-width:1;"/><text fill="#000000" font-family="Verdana" font-size="14" lengthAdjust="spacing" textLength="170.9873" x="383.69" y="513.7791">Error_Strings : renames</text><ellipse cx="376.69" cy="526.7259" fill="none" rx="3" ry="3" style="stroke:#000000;stroke-width:1;"/><text fill="#000000" font-family="Verdana" font-size="14" lengthAdjust="spacing" textLength="190.1279" x="383.69" y="530.7938">Validation_Error : constant</text><ellipse cx="376.69" cy="543.7405" fill="none" rx="3" ry="3" style="stroke:#000000;stroke-width:1;"/><text fill="#000000" font-family="Verdana" font-size="14" lengthAdjust="spacing" textLength="218.3057" x="383.69" y="547.8084">Infrastructure_Error : constant</text><line style="stroke:#000000;stroke-width:1;" x1="366.69" x2="627.3023" y1="554.7479" y2="554.7479"/><text fill="#000000" font-family="Verdana" font-size="14" font-weight="bold" lengthAdjust="spacing" textLength="196.7246" x="371.69" y="572.823">Re-exports Domain.Error</text><text fill="#000000" font-family="Verdana" font-size="14" lengthAdjust="spacing" textLength="250.6123" x="371.69" y="589.8377">Zero overhead (subtypes/renames)</text></g><!--class Writer--><g class="entity" data-entity="Writer" data-source-line="27" data-uid="ent0006" id="entity_Writer"><rect fill="#FFFFFF" height="78.0293" rx="2.5" ry="2.5" style="stroke:#000000;stroke-width:1;" width="252.2734" x="370.86" y="847.5946"/><ellipse cx="383.86" cy="861.5946" fill="#FFFFFF" rx="9" ry="9" style="stroke:#000000;stroke-width:1;"/><path d="M386.3331,867.7377 Q385.7521,868.0365 385.1129,868.1859 Q384.4738,868.3353 383.7682,868.3353 Q381.2614,868.3353 379.9415,866.6835 Q378.6217,865.0316 378.6217,861.9105 Q378.6217,858.7811 379.9415,857.1293 Q381.2614,855.4774 383.7682,855.4774 Q384.4738,855.4774 385.1212,855.6268 Q385.7687,855.7763 386.3331,856.0751 L386.3331,858.7977 Q385.7023,858.2167 385.1088,857.9469 Q384.5153,857.6771 383.8844,857.6771 Q382.5397,857.6771 381.8549,858.7438 Q381.1701,859.8104 381.1701,861.9105 Q381.1701,864.0023 381.8549,865.069 Q382.5397,866.1356 383.8844,866.1356 Q384.5153,866.1356 385.1088,865.8658 Q385.7023,865.5961 386.3331,865.015 Z " fill="#000000"/><text fill="#000000" font-family="Verdana" font-size="14" lengthAdjust="spacing" textLength="224.2734" x="395.86" y="867.1625">Application.Port.Outward.Writer</text><line style="stroke:#000000;stroke-width:1;" x1="371.86" x2="622.1334" y1="875.5946" y2="875.5946"/><ellipse cx="381.86" cy="889.6019" fill="none" rx="3" ry="3" style="stroke:#000000;stroke-width:1;"/><text fill="#000000" font-family="Verdana" font-size="14" lengthAdjust="spacing" textLength="181.918" x="388.86" y="893.6698">Unit_Result : Result[Unit]</text><line style="stroke:#000000;stroke-width:1;" x1="371.86" x2="622.1334" y1="900.6093" y2="900.6093"/><text fill="#000000" font-family="Verdana" font-size="14" lengthAdjust="spacing" textLength="181.1523" x="376.86" y="918.6845">Uses Domain.Error.Result</text></g><!--class GreetCmd--><g class="entity" data-entity="GreetCmd" data-source-line="35" data-uid="ent0008" id="entity_GreetCmd"><rect fill="#FFFFFF" height="95.0439" rx="2.5" ry="2.5" style="stroke:#000000;stroke-width:1;" width="265.1523" x="107.42" y="129.9746"/><ellipse cx="120.42" cy="143.9746" fill="#FFFFFF" rx="9" ry="9" style="stroke:#000000;stroke-width:1;"/><path d="M122.8931,150.1177 Q122.3121,150.4165 121.6729,150.5659 Q121.0338,150.7153 120.3282,150.7153 Q117.8214,150.7153 116.5015,149.0635 Q115.1817,147.4116 115.1817,144.2905 Q115.1817,141.1611 116.5015,139.5093 Q117.8214,137.8574 120.3282,137.8574 Q121.0338,137.8574 121.6812,138.0068 Q122.3287,138.1563 122.8931,138.4551 L122.8931,141.1777 Q122.2623,140.5967 121.6688,140.3269 Q121.0753,140.0571 120.4444,140.0571 Q119.0997,140.0571 118.4149,141.1238 Q117.7301,142.1904 117.7301,144.2905 Q117.7301,146.3823 118.4149,147.449 Q119.0997,148.5156 120.4444,148.5156 Q121.0753,148.5156 121.6688,148.2458 Q122.2623,147.9761 122.8931,147.395 Z " fill="#000000"/><text fill="#000000" font-family="Verdana" font-size="14" lengthAdjust="spacing" textLength="237.1523" x="132.42" y="149.5425">Presentation.CLI.Command.Greet</text><line style="stroke:#000000;stroke-width:1;" x1="108.42" x2="371.5723" y1="157.9746" y2="157.9746"/><ellipse cx="118.42" cy="171.9819" fill="#FFFFFF" rx="3" ry="3" style="stroke:#000000;stroke-width:1;"/><text fill="#000000" font-family="Verdana" font-size="14" lengthAdjust="spacing" textLength="108.0146" x="125.42" y="176.0498">Run() : Integer</text><line style="stroke:#000000;stroke-width:1;" x1="108.42" x2="371.5723" y1="182.9893" y2="182.9893"/><text fill="#000000" font-family="Verdana" font-size="14" lengthAdjust="spacing" textLength="33.1748" x="113.42" y="201.0645">Uses</text><text fill="#000000" font-family="Verdana" font-size="14" font-weight="bold" lengthAdjust="spacing" textLength="133.4648" x="151.5167" y="201.0645">Application.Error</text><text fill="#000000" font-family="Verdana" font-size="14" lengthAdjust="spacing" textLength="129.418" x="113.42" y="218.0791">NOT Domain.Error</text></g><!--class ConsoleWriter--><g class="entity" data-entity="ConsoleWriter" data-source-line="44" data-uid="ent0010" id="entity_ConsoleWriter"><rect fill="#FFFFFF" height="95.0439" rx="2.5" ry="2.5" style="stroke:#000000;stroke-width:1;" width="298.6211" x="683.69" y="467.6946"/><ellipse cx="696.69" cy="481.6946" fill="#FFFFFF" rx="9" ry="9" style="stroke:#000000;stroke-width:1;"/><path d="M699.1631,487.8377 Q698.5821,488.1365 697.9429,488.2859 Q697.3038,488.4353 696.5982,488.4353 Q694.0914,488.4353 692.7715,486.7835 Q691.4517,485.1316 691.4517,482.0105 Q691.4517,478.8811 692.7715,477.2293 Q694.0914,475.5774 696.5982,475.5774 Q697.3038,475.5774 697.9512,475.7268 Q698.5987,475.8763 699.1631,476.1751 L699.1631,478.8977 Q698.5323,478.3167 697.9388,478.0469 Q697.3453,477.7771 696.7144,477.7771 Q695.3697,477.7771 694.6849,478.8438 Q694.0001,479.9104 694.0001,482.0105 Q694.0001,484.1023 694.6849,485.169 Q695.3697,486.2356 696.7144,486.2356 Q697.3453,486.2356 697.9388,485.9658 Q698.5323,485.6961 699.1631,485.115 Z " fill="#000000"/><text fill="#000000" font-family="Verdana" font-size="14" lengthAdjust="spacing" textLength="270.6211" x="708.69" y="487.2625">Infrastructure.Adapter.Console_Writer</text><line style="stroke:#000000;stroke-width:1;" x1="684.69" x2="981.3111" y1="495.6946" y2="495.6946"/><ellipse cx="694.69" cy="509.7019" fill="#FFFFFF" rx="3" ry="3" style="stroke:#000000;stroke-width:1;"/><text fill="#000000" font-family="Verdana" font-size="14" lengthAdjust="spacing" textLength="170.2148" x="701.69" y="513.7698">Write(Message) : Result</text><line style="stroke:#000000;stroke-width:1;" x1="684.69" x2="981.3111" y1="520.7093" y2="520.7093"/><text fill="#000000" font-family="Verdana" font-size="14" lengthAdjust="spacing" textLength="33.1748" x="689.69" y="538.7845">Uses</text><text fill="#000000" font-family="Verdana" font-size="14" font-weight="bold" lengthAdjust="spacing" textLength="105.2666" x="727.7867" y="538.7845">Domain.Error</text><text fill="#000000" font-family="Verdana" font-size="14" lengthAdjust="spacing" textLength="51.8164" x="837.9752" y="538.7845">directly</text><text fill="#000000" font-family="Verdana" font-size="14" lengthAdjust="spacing" textLength="192.7461" x="689.69" y="555.7991">(allowed for Infrastructure)</text></g><g class="entity" data-entity="GMN16" data-source-line="62" data-uid="ent0017" id="entity_GMN16"><path d="M1017,328.5246 L1017,701.9089 L1389,701.9089 L1389,338.5246 L1379,328.5246 L1017,328.5246" fill="#FFFFFF" style="stroke:#000000;stroke-width:1;"/><path d="M1379,328.5246 L1379,338.5246 L1389,338.5246 L1379,328.5246" fill="#FFFFFF" style="stroke:#000000;stroke-width:1;"/><text fill="#000000" font-family="Verdana" font-size="13" font-weight="bold" lengthAdjust="spacing" textLength="131.625" x="1023" y="346.5944">Re-export Pattern</text><text fill="#000000" font-family="Verdana" font-size="13" lengthAdjust="spacing" textLength="351" x="1023" y="362.3938">&#9552;&#9552;&#9552;&#9552;&#9552;&#9552;&#9552;&#9552;&#9552;&#9552;&#9552;&#9552;&#9552;&#9552;&#9552;&#9552;&#9552;&#9552;&#9552;&#9552;&#9552;&#9552;&#9552;&#9552;&#9552;&#9552;&#9552;</text><text fill="#000000" font-family="Verdana" font-size="13" lengthAdjust="spacing" textLength="4.5703" x="1023" y="378.1931">&#160;</text><text fill="#000000" font-family="Verdana" font-size="13" lengthAdjust="spacing" textLength="48.5088" x="1023" y="393.9924">```ada</text><text fill="#000000" font-family="Verdana" font-size="13" lengthAdjust="spacing" textLength="125.6646" x="1023" y="409.7917">with Domain.Error;</text><text fill="#000000" font-family="Verdana" font-size="13" lengthAdjust="spacing" textLength="4.5703" x="1023" y="425.591">&#160;</text><text fill="#000000" font-family="Verdana" font-size="13" lengthAdjust="spacing" textLength="182.5967" x="1023" y="441.3903">package Application.Error is</text><text fill="#000000" font-family="Verdana" font-size="13" lengthAdjust="spacing" textLength="121.1641" x="1032.1406" y="457.1896">-- Re-export types</text><text fill="#000000" font-family="Verdana" font-size="13" lengthAdjust="spacing" textLength="143.8062" x="1032.1406" y="472.989">subtype Error_Type is</text><text fill="#000000" font-family="Verdana" font-size="13" lengthAdjust="spacing" textLength="170.8345" x="1041.2813" y="488.7883">Domain.Error.Error_Type;</text><text fill="#000000" font-family="Verdana" font-size="13" lengthAdjust="spacing" textLength="4.5703" x="1023" y="504.5876">&#160;</text><text fill="#000000" font-family="Verdana" font-size="13" lengthAdjust="spacing" textLength="141.1592" x="1032.1406" y="520.3869">subtype Error_Kind is</text><text fill="#000000" font-family="Verdana" font-size="13" lengthAdjust="spacing" textLength="168.1875" x="1041.2813" y="536.1862">Domain.Error.Error_Kind;</text><text fill="#000000" font-family="Verdana" font-size="13" lengthAdjust="spacing" textLength="4.5703" x="1023" y="551.9855">&#160;</text><text fill="#000000" font-family="Verdana" font-size="13" lengthAdjust="spacing" textLength="206.8955" x="1032.1406" y="567.7849">package Error_Strings renames</text><text fill="#000000" font-family="Verdana" font-size="13" lengthAdjust="spacing" textLength="185.5103" x="1041.2813" y="583.5842">Domain.Error.Error_Strings;</text><text fill="#000000" font-family="Verdana" font-size="13" lengthAdjust="spacing" textLength="4.5703" x="1023" y="599.3835">&#160;</text><text fill="#000000" font-family="Verdana" font-size="13" lengthAdjust="spacing" textLength="166.5752" x="1032.1406" y="615.1828">-- Convenience constants</text><text fill="#000000" font-family="Verdana" font-size="13" lengthAdjust="spacing" textLength="116.0352" x="1032.1406" y="630.9821">Validation_Error :</text><text fill="#000000" font-family="Verdana" font-size="13" lengthAdjust="spacing" textLength="151.5439" x="1041.2813" y="646.7814">constant Error_Kind :=</text><text fill="#000000" font-family="Verdana" font-size="13" lengthAdjust="spacing" textLength="203.8296" x="1050.4219" y="662.5808">Domain.Error.Validation_Error;</text><text fill="#000000" font-family="Verdana" font-size="13" lengthAdjust="spacing" textLength="143.6348" x="1023" y="678.3801">end Application.Error;</text><text fill="#000000" font-family="Verdana" font-size="13" lengthAdjust="spacing" textLength="24.7939" x="1023" y="694.1794">```</text></g><g class="entity" data-entity="GMN19" data-source-line="88" data-uid="ent0020" id="entity_GMN19"><path d="M11,391.7246 L11,638.7144 A0,0 0 0 0 11,638.7144 L331,638.7144 A0,0 0 0 0 331,638.7144 L331,401.7246 L321,391.7246 L200.26,391.7246 L230.41,225.1846 L192.26,391.7246 L11,391.7246 A0,0 0 0 0 11,391.7246" fill="#FFFFFF" style="stroke:#000000;stroke-width:1;"/><path d="M321,391.7246 L321,401.7246 L331,401.7246 L321,391.7246" fill="#FFFFFF" style="stroke:#000000;stroke-width:1;"/><text fill="#000000" font-family="Verdana" font-size="13" font-weight="bold" lengthAdjust="spacing" textLength="142.5049" x="17" y="409.7944">Presentation Usage</text><text fill="#000000" font-family="Verdana" font-size="13" lengthAdjust="spacing" textLength="299" x="17" y="425.5938">&#9552;&#9552;&#9552;&#9552;&#9552;&#9552;&#9552;&#9552;&#9552;&#9552;&#9552;&#9552;&#9552;&#9552;&#9552;&#9552;&#9552;&#9552;&#9552;&#9552;&#9552;&#9552;&#9552;</text><text fill="#000000" font-family="Verdana" font-size="13" lengthAdjust="spacing" textLength="4.5703" x="17" y="441.3931">&#160;</text><text fill="#000000" font-family="Verdana" font-size="13" lengthAdjust="spacing" textLength="48.5088" x="17" y="457.1924">```ada</text><text fill="#000000" font-family="Verdana" font-size="13" lengthAdjust="spacing" textLength="189.6372" x="17" y="472.9917">with Application.Error;  -- &#9989;</text><text fill="#000000" font-family="Verdana" font-size="13" lengthAdjust="spacing" textLength="202.0532" x="17" y="488.791">-- NOT: with Domain.Error; &#10060;</text><text fill="#000000" font-family="Verdana" font-size="13" lengthAdjust="spacing" textLength="4.5703" x="17" y="504.5903">&#160;</text><text fill="#000000" font-family="Verdana" font-size="13" lengthAdjust="spacing" textLength="138.1631" x="17" y="520.3896">Error_Info : constant</text><text fill="#000000" font-family="Verdana" font-size="13" lengthAdjust="spacing" textLength="232.1592" x="26.1406" y="536.189">Application.Error.Error_Type := ...;</text><text fill="#000000" font-family="Verdana" font-size="13" lengthAdjust="spacing" textLength="4.5703" x="17" y="551.9883">&#160;</text><text fill="#000000" font-family="Verdana" font-size="13" lengthAdjust="spacing" textLength="149.3857" x="17" y="567.7876">case Error_Info.Kind is</text><text fill="#000000" font-family="Verdana" font-size="13" lengthAdjust="spacing" textLength="284.6353" x="26.1406" y="583.5869">when Application.Error.Validation_Error =&gt;</text><text fill="#000000" font-family="Verdana" font-size="13" lengthAdjust="spacing" textLength="168.1177" x="35.2813" y="599.3862">Put_Line("Invalid input");</text><text fill="#000000" font-family="Verdana" font-size="13" lengthAdjust="spacing" textLength="63.6416" x="17" y="615.1855">end case;</text><text fill="#000000" font-family="Verdana" font-size="13" lengthAdjust="spacing" textLength="24.7939" x="17" y="630.9849">```</text></g><g class="entity" data-entity="GMN22" data-source-line="106" data-uid="ent0023" id="entity_GMN22"><path d="M666.5,778.9146 L666.5,994.3057 A0,0 0 0 0 666.5,994.3057 L999.5,994.3057 A0,0 0 0 0 999.5,994.3057 L999.5,788.9146 L989.5,778.9146 L837,778.9146 L833,563.0046 L829,778.9146 L666.5,778.9146 A0,0 0 0 0 666.5,778.9146" fill="#FFFFFF" style="stroke:#000000;stroke-width:1;"/><path d="M989.5,778.9146 L989.5,788.9146 L999.5,788.9146 L989.5,778.9146" fill="#FFFFFF" style="stroke:#000000;stroke-width:1;"/><text fill="#000000" font-family="Verdana" font-size="13" font-weight="bold" lengthAdjust="spacing" textLength="153.3975" x="672.5" y="796.9844">Infrastructure Usage</text><text fill="#000000" font-family="Verdana" font-size="13" lengthAdjust="spacing" textLength="312" x="672.5" y="812.7838">&#9552;&#9552;&#9552;&#9552;&#9552;&#9552;&#9552;&#9552;&#9552;&#9552;&#9552;&#9552;&#9552;&#9552;&#9552;&#9552;&#9552;&#9552;&#9552;&#9552;&#9552;&#9552;&#9552;&#9552;</text><text fill="#000000" font-family="Verdana" font-size="13" lengthAdjust="spacing" textLength="4.5703" x="672.5" y="828.5831">&#160;</text><text fill="#000000" font-family="Verdana" font-size="13" lengthAdjust="spacing" textLength="48.5088" x="672.5" y="844.3824">```ada</text><text fill="#000000" font-family="Verdana" font-size="13" lengthAdjust="spacing" textLength="223.1465" x="672.5" y="860.1817">with Domain.Error;  -- &#9989; Allowed</text><text fill="#000000" font-family="Verdana" font-size="13" lengthAdjust="spacing" textLength="4.5703" x="672.5" y="875.981">&#160;</text><text fill="#000000" font-family="Verdana" font-size="13" lengthAdjust="spacing" textLength="186.5576" x="672.5" y="891.7803">-- Infrastructure CAN access</text><text fill="#000000" font-family="Verdana" font-size="13" lengthAdjust="spacing" textLength="156.6982" x="672.5" y="907.5796">-- Domain.Error directly</text><text fill="#000000" font-family="Verdana" font-size="13" lengthAdjust="spacing" textLength="221.2095" x="672.5" y="923.379">return Domain.Error.Result.Error(</text><text fill="#000000" font-family="Verdana" font-size="13" lengthAdjust="spacing" textLength="288.1392" x="681.6406" y="939.1783">Kind =&gt; Domain.Error.Infrastructure_Error,</text><text fill="#000000" font-family="Verdana" font-size="13" lengthAdjust="spacing" textLength="159.7832" x="681.6406" y="954.9776">Message =&gt; "I/O failed"</text><text fill="#000000" font-family="Verdana" font-size="13" lengthAdjust="spacing" textLength="11.8066" x="672.5" y="970.7769">);</text><text fill="#000000" font-family="Verdana" font-size="13" lengthAdjust="spacing" textLength="24.7939" x="672.5" y="986.5762">```</text></g><!--reverse link DomainError to AppError--><g class="link" data-entity-1="DomainError" data-entity-2="AppError" data-source-line="53" data-uid="lnk11" id="link_DomainError_AppError"><path codeLine="53" d="M624.5436,238.1522 C614.3936,247.9522 609.02,254.4246 601,265.5246 C564.29,316.3746 537.52,382.1246 520.33,433.2546" fill="none" id="DomainError-backto-AppError" style="stroke:#000000;stroke-width:1;stroke-dasharray:7,7;"/><polygon fill="#000000" points="628.86,233.9846,619.607,237.3584,625.263,237.4576,625.1638,243.1136,628.86,233.9846" style="stroke:#000000;stroke-width:1;"/><text fill="#000000" font-family="Verdana" font-size="13" lengthAdjust="spacing" textLength="68.0659" x="630.9453" y="279.5944">re-exports</text><text fill="#000000" font-family="Verdana" font-size="13" lengthAdjust="spacing" textLength="125.9565" x="602" y="295.3938">(subtype/renames)</text></g><!--reverse link AppError to Writer--><g class="link" data-entity-1="AppError" data-entity-2="Writer" data-source-line="54" data-uid="lnk12" id="link_AppError_Writer"><path codeLine="54" d="M497,602.8246 C497,680.5246 497,788.7046 497,847.5046" fill="none" id="AppError-backto-Writer" style="stroke:#000000;stroke-width:1;stroke-dasharray:7,7;"/><polygon fill="#000000" points="497,596.8246,493,605.8246,497,601.8246,501,605.8246,497,596.8246" style="stroke:#000000;stroke-width:1;"/><text fill="#000000" font-family="Verdana" font-size="13" lengthAdjust="spacing" textLength="29.5166" x="498" y="745.9844">uses</text></g><!--reverse link AppError to GreetCmd--><g class="link" data-entity-1="AppError" data-entity-2="GreetCmd" data-source-line="55" data-uid="lnk13" id="link_AppError_GreetCmd"><path codeLine="55" d="M431.4931,428.6501 C381.6331,363.5101 316.9,278.9646 275.73,225.1846" fill="none" id="AppError-backto-GreetCmd" style="stroke:#000000;stroke-width:1;stroke-dasharray:7,7;"/><polygon fill="#000000" points="435.14,433.4146,432.846,423.8366,432.1009,429.4442,426.4934,428.6991,435.14,433.4146" style="stroke:#000000;stroke-width:1;"/><text fill="#000000" font-family="Verdana" font-size="13" lengthAdjust="spacing" textLength="51.0869" x="331.46" y="287.5944">uses &#9989;</text></g><!--reverse link DomainError to ConsoleWriter--><g class="link" data-entity-1="DomainError" data-entity-2="ConsoleWriter" data-source-line="56" data-uid="lnk14" id="link_DomainError_ConsoleWriter"><path codeLine="56" d="M724.9954,239.5185 C750.6254,304.7085 790.51,406.1646 814.58,467.3746" fill="none" id="DomainError-backto-ConsoleWriter" style="stroke:#000000;stroke-width:1;stroke-dasharray:7,7;"/><polygon fill="#000000" points="722.8,233.9346,722.3704,243.7741,724.6295,238.5879,729.8157,240.8469,722.8,233.9346" style="stroke:#000000;stroke-width:1;"/><text fill="#000000" font-family="Verdana" font-size="13" lengthAdjust="spacing" textLength="51.0869" x="748.46" y="287.5944">uses &#9989;</text></g><!--link GreetCmd to DomainError--><g class="link" data-entity-1="GreetCmd" data-entity-2="DomainError" data-source-line="59" data-uid="lnk15" id="link_GreetCmd_DomainError"><path codeLine="59" d="M373.03,177.5046 C438.59,177.5046 511.04,177.5046 574.78,177.5046" fill="none" id="GreetCmd-to-DomainError" style="stroke:#FF0000;stroke-width:1;stroke-dasharray:7,7;"/><polygon fill="#FF0000" points="580.78,177.5046,571.78,173.5046,575.78,177.5046,571.78,181.5046,580.78,177.5046" style="stroke:#FF0000;stroke-width:1;"/><text fill="#000000" font-family="Verdana" font-size="13" lengthAdjust="spacing" textLength="100.6748" x="426.4792" y="155.5744">&#10060; FORBIDDEN</text><text fill="#000000" font-family="Verdana" font-size="13" lengthAdjust="spacing" textLength="172.0532" x="390.79" y="171.3738">Must use Application.Error</text></g><!--link AppError to GMN16--><g class="link" data-entity-1="AppError" data-entity-2="GMN16" data-source-line="62" data-uid="lnk18" id="link_AppError_GMN16"><path d="M541.45,433.3046 C573.95,382.6146 623.18,321.8846 685.5,293.0246 C744.99,265.4846 919.93,267.9646 980.5,293.0246 C1002.06,301.9546 1022.63,314.0946 1041.93,328.1246" fill="none" id="AppError-GMN16" style="stroke:#000000;stroke-width:1;stroke-dasharray:7,7;"/></g><g class="legend" data-source-line="121"><rect fill="none" height="248.2051" rx="7.5" ry="7.5" style="stroke:#000000;stroke-width:1;" width="444" x="933" y="1005.3057"/><text fill="#000000" font-family="Verdana" font-size="14" font-weight="bold" lengthAdjust="spacing" textLength="127.9961" x="938" y="1024.3809">Pattern Benefits</text><text fill="#000000" font-family="Verdana" font-size="14" lengthAdjust="spacing" textLength="434" x="938" y="1041.3956">&#9552;&#9552;&#9552;&#9552;&#9552;&#9552;&#9552;&#9552;&#9552;&#9552;&#9552;&#9552;&#9552;&#9552;&#9552;&#9552;&#9552;&#9552;&#9552;&#9552;&#9552;&#9552;&#9552;&#9552;&#9552;&#9552;&#9552;&#9552;&#9552;&#9552;&#9552;</text><text fill="#000000" font-family="Verdana" font-size="14" lengthAdjust="spacing" textLength="267.2402" x="938" y="1058.4102">&#9989; Zero overhead (subtype/renames)</text><text fill="#000000" font-family="Verdana" font-size="14" lengthAdjust="spacing" textLength="211.7119" x="938" y="1075.4249">&#9989; Compile-time enforcement</text><text fill="#000000" font-family="Verdana" font-size="14" lengthAdjust="spacing" textLength="243.0752" x="938" y="1092.4395">&#9989; Clear boundary between layers</text><text fill="#000000" font-family="Verdana" font-size="14" lengthAdjust="spacing" textLength="247.915" x="938" y="1109.4542">&#9989; Single source of truth (Domain)</text><text fill="#000000" font-family="Verdana" font-size="14" lengthAdjust="spacing" textLength="284.9385" x="938" y="1126.4688">&#9989; Presentation decoupled from Domain</text><text fill="#000000" font-family="Verdana" font-size="14" lengthAdjust="spacing" textLength="4.9219" x="938" y="1143.4835">&#160;</text><text fill="#000000" font-family="Verdana" font-size="14" font-weight="bold" lengthAdjust="spacing" textLength="136.999" x="938" y="1160.4981">Why This Matters</text><text fill="#000000" font-family="Verdana" font-size="14" lengthAdjust="spacing" textLength="434" x="938" y="1177.5128">&#9552;&#9552;&#9552;&#9552;&#9552;&#9552;&#9552;&#9552;&#9552;&#9552;&#9552;&#9552;&#9552;&#9552;&#9552;&#9552;&#9552;&#9552;&#9552;&#9552;&#9552;&#9552;&#9552;&#9552;&#9552;&#9552;&#9552;&#9552;&#9552;&#9552;&#9552;</text><text fill="#000000" font-family="Verdana" font-size="14" lengthAdjust="spacing" textLength="243.4893" x="938" y="1194.5274">&#8226; Domain is shareable across apps</text><text fill="#000000" font-family="Verdana" font-size="14" lengthAdjust="spacing" textLength="300.248" x="938" y="1211.5421">&#8226; Application/Presentation are app-specific</text><text fill="#000000" font-family="Verdana" font-size="14" lengthAdjust="spacing" textLength="256.0879" x="938" y="1228.5567">&#8226; Multiple UIs can use same Domain</text><text fill="#000000" font-family="Verdana" font-size="14" lengthAdjust="spacing" textLength="185.3838" x="938" y="1245.5713">&#8226; Forces use case thinking</text></g><!--SRC=[lLTBR-Cs4BxhLx3EeRPRAoZQBhf94y3hM0kZUI6RT84sXKDBuuXOcH98AgvHBD1BRptqqbjxwK_BB-dm8OUqXDrBMY10ACx7uJo-6Ou_KJciW5G5PJoA55C5a75L5IobYfKydWfH2d858_YvAeKYbrGf4FoMNmfu0AuOloVNWdB957i0SbAkK14Pfob86KKLJT_HUo0zjtzADo1wXCe6k9SaoSlf2_9BH4XQK2aRgBtOWrf3D8wGpuZvcbzlAY07H41QYYoGVCTuXXBWzIhOVwC4MYnHj2Xhda56fDaneD78_9jGNdBqlo1WxinWoJZJqP0eVn-zz_poGkKvv-_kJRz9lfw-z3rinRSvz04VPRrGkEfoialqvAS0JbSWdVHxMh3Ct3otbnsG5FrIb2k7cF6be1YKEbMrW6wK2zHmkEL5aoNhpt1ev3-0A4dv0287cf6-irFkEvC69fhTORb4dV55hTPKPF5RmPIBh5rkGtI3UPbVWQmBXJRQnOzwyoVVpXi9eNsnHRQoYPoMoEdTT0RRoDZfLzCl_7pwydXoEeidvMf5UHQ_5W3Ag32hoIhRMdvLy_u0RPvn1VSWMkOEXosMkAYUNrm7phIy23Fe-R4Zs9k-IBvC4j-J416FCrfXkD4VBii2vbuYtDPEFind_mnh7oqPR5FIuLr85v8nB69LR0oaJukYN6DjBf5weKc3njjFKNLXWYDpLid8RnBVnl5JDUaAQ4XwoniIFd5m2zIdd3i7f4OhGz4sWrP87l_whNLf61GFYEOcfLYmB0CURJN5WjtdAZuEEjoU07t7uz-_a-JYwjNiv6HwVilFQgcqkdPlZY9UAY165IcNMyUZe3wRlcquzFZd7y_xfuluxkwEPXGNQwRoWA27Mjomi_ssCEdeuRqofa-ORPSllncw0oGiwIU0kM_tfEcL7pgf0UvaOslOIlr6sgd10PqIz0VfW4ya0vx2jd_Qy-qsxDGsiA337pdXpgsxIWuH1eXlXVZGfYVIGaqMHvb5gLIvqfnf66au4tIx6rt8pqUQDb7QnfhGwQ8n2-ns1nsKqlMXbTamOOyeTz-ebkBOVq-FI1p79bCfbU2fYNsYh7FW7OfQsJiwTXcwhDNyb77eOoTzq2Z2U5Mhtg39ZRxje-a8seZ9oKxdVkQiVBo2cvoGiUtCaKtEZbcJyJcXTl8pOb-5t-4589ntlSZses-YQH9nT1p2kgQJpmtSFJhwH6-sVq6Mb1MGzL0sQ0Uym3SNFqpJjAItxP6y0exJdfB_JPyC8avCGBjd97z4qYWSA2fqPwGOpkg0D1KfJks6wKPS01LsegLYGnQWre3CBVJBBntc3VOcdErbMUDPpJ8C8gQvRyFRN1GKVuPpTLqL-Y4Mo4oBZ4oytkORSfqpISvCuFwdUFtwJ_Ex0M-MEHL05-WJJKM9qmkjAkbGNitk1oxX4OqRoGfIjcIfmvyXznXwIcvc4ckKcwTMOWOQfoqiqN6NHcZQXiePVwT_FI2PBAMYVm40]--></g></svg>