<svg xmlns="http://www.w3.org/2000/svg" xmlns:xlink="http://www.w3.org/1999/xlink" contentStyleType="text/css" data-diagram-type="DESCRIPTION" height="1256px" preserveAspectRatio="none" style="width:2001px;height:1256px;background:#FFFFFF;" version="1.1" viewBox="0 0 2001 1256" width="2001px" zoomAndPan="magnify"><title>Hybrid_App_Ada - Package Structure
Actual Packages in Each Layer</title><defs/><g><g class="title" data-source-line="4"><text fill="#000000" font-family="Verdana" font-size="22" font-weight="bold" lengthAdjust="spacing" textLength="434.3174" x="779.2963" y="37.1182">Hybrid_App_Ada - Package Structure</text><text fill="#000000" font-family="Verdana" font-size="22" font-weight="bold" lengthAdjust="spacing" textLength="374.3867" x="809.2616" y="63.8555">Actual Packages in Each Layer</text></g><!--cluster Bootstrap Layer--><g class="cluster" data-entity="Bootstrap Layer" data-source-line="6" data-uid="ent0002" id="cluster_Bootstrap Layer"><rect fill="#FFEBCD" height="125.19" rx="2.5" ry="2.5" style="stroke:#000000;stroke-width:1;" width="364" x="251.91" y="118.0746"/><path d="M387.3836,118.0746 L387.3836,128.0893 L377.3836,138.0893 L251.91,138.0893" fill="none" style="stroke:#000000;stroke-width:1;"/><text fill="#000000" font-family="Verdana" font-size="14" font-weight="bold" lengthAdjust="spacing" textLength="125.4736" x="254.91" y="133.1498">Bootstrap Layer</text></g><!--cluster Presentation Layer--><g class="cluster" data-entity="Presentation Layer" data-source-line="16" data-uid="ent0007" id="cluster_Presentation Layer"><rect fill="#FFE4E1" height="188.39" rx="2.5" ry="2.5" style="stroke:#000000;stroke-width:1;" width="564" x="654.91" y="86.4746"/><path d="M813.9061,86.4746 L813.9061,96.4893 L803.9061,106.4893 L654.91,106.4893" fill="none" style="stroke:#000000;stroke-width:1;"/><text fill="#000000" font-family="Verdana" font-size="14" font-weight="bold" lengthAdjust="spacing" textLength="148.9961" x="657.91" y="101.5498">Presentation Layer</text></g><!--cluster Infrastructure Layer--><g class="cluster" data-entity="Infrastructure Layer" data-source-line="30" data-uid="ent0012" id="cluster_Infrastructure Layer"><rect fill="#E6F3FF" height="125.19" rx="2.5" ry="2.5" style="stroke:#000000;stroke-width:1;" width="597" x="1398.91" y="118.0746"/><path d="M1569.6366,118.0746 L1569.6366,128.0893 L1559.6366,138.0893 L1398.91,138.0893" fill="none" style="stroke:#000000;stroke-width:1;"/><text fill="#000000" font-family="Verdana" font-size="14" font-weight="bold" lengthAdjust="spacing" textLength="160.7266" x="1401.91" y="133.1498">Infrastructure Layer</text></g><!--cluster Application Layer--><g class="cluster" data-entity="Application Layer" data-source-line="40" data-uid="ent0017" id="cluster_Application Layer"><rect fill="#E8F5E9" height="298.99" rx="2.5" ry="2.5" style="stroke:#000000;stroke-width:1;" width="1424" x="237.91" y="323.8646"/><path d="M384.6903,323.8646 L384.6903,333.8793 L374.6903,343.8793 L237.91,343.8793" fill="none" style="stroke:#000000;stroke-width:1;"/><text fill="#000000" font-family="Verdana" font-size="14" font-weight="bold" lengthAdjust="spacing" textLength="136.7803" x="240.91" y="338.9398">Application Layer</text></g><!--cluster Domain Layer--><g class="cluster" data-entity="Domain Layer" data-source-line="66" data-uid="ent0026" id="cluster_Domain Layer"><rect fill="#FFF9E6" height="109.4" rx="2.5" ry="2.5" style="stroke:#000000;stroke-width:1;" width="933" x="388.91" y="671.8546"/><path d="M507.492,671.8546 L507.492,681.8693 L497.492,691.8693 L388.91,691.8693" fill="none" style="stroke:#000000;stroke-width:1;"/><text fill="#000000" font-family="Verdana" font-size="14" font-weight="bold" lengthAdjust="spacing" textLength="108.582" x="391.91" y="686.9298">Domain Layer</text></g><!--entity BootstrapCLI--><g class="entity" data-entity="BootstrapCLI" data-source-line="7" data-uid="ent0003" id="entity_BootstrapCLI"><rect fill="#FFFFFF" height="37.0146" rx="2.5" ry="2.5" style="stroke:#000000;stroke-width:1;" width="116.5781" x="267.62" y="172.1646"/><text fill="#000000" font-family="Verdana" font-size="14" lengthAdjust="spacing" textLength="96.5781" x="277.62" y="196.2398">Bootstrap.CLI</text></g><g class="entity" data-entity="GMN4" data-source-line="9" data-uid="ent0005" id="entity_GMN4"><path d="M419.46,154.0746 L419.46,186.6746 L384.48,190.6746 L419.46,194.6746 L419.46,227.2719 A0,0 0 0 0 419.46,227.2719 L600.3448,227.2719 A0,0 0 0 0 600.3448,227.2719 L600.3448,164.0746 L590.3448,154.0746 L419.46,154.0746 A0,0 0 0 0 419.46,154.0746" fill="#FFFFFF" style="stroke:#000000;stroke-width:1;"/><path d="M590.3448,154.0746 L590.3448,164.0746 L600.3448,164.0746 L590.3448,154.0746" fill="#FFFFFF" style="stroke:#000000;stroke-width:1;"/><text fill="#000000" font-family="Verdana" font-size="13" font-weight="bold" lengthAdjust="spacing" textLength="129.1938" x="425.46" y="172.1444">Composition Root</text><text fill="#000000" font-family="Verdana" font-size="13" lengthAdjust="spacing" textLength="159.8848" x="425.46" y="187.9438">- Wires all dependencies</text><text fill="#000000" font-family="Verdana" font-size="13" lengthAdjust="spacing" textLength="145.7549" x="425.46" y="203.7431">- Generic instantiation</text><text fill="#000000" font-family="Verdana" font-size="13" lengthAdjust="spacing" textLength="158.4629" x="425.46" y="219.5424">- Application entry point</text></g><!--entity PresentationGreet--><g class="entity" data-entity="PresentationGreet" data-source-line="17" data-uid="ent0008" id="entity_PresentationGreet"><rect fill="#FFFFFF" height="37.0146" rx="2.5" ry="2.5" style="stroke:#000000;stroke-width:1;" width="257.1523" x="671.33" y="172.1646"/><text fill="#000000" font-family="Verdana" font-size="14" lengthAdjust="spacing" textLength="237.1523" x="681.33" y="196.2398">Presentation.CLI.Command.Greet</text></g><g class="entity" data-entity="GMN9" data-source-line="19" data-uid="ent0010" id="entity_GMN9"><path d="M963.04,122.4746 L963.04,186.6746 L928.97,190.6746 L963.04,194.6746 L963.04,258.8691 A0,0 0 0 0 963.04,258.8691 L1202.7675,258.8691 A0,0 0 0 0 1202.7675,258.8691 L1202.7675,132.4746 L1192.7675,122.4746 L963.04,122.4746 A0,0 0 0 0 963.04,122.4746" fill="#FFFFFF" style="stroke:#000000;stroke-width:1;"/><path d="M1192.7675,122.4746 L1192.7675,132.4746 L1202.7675,132.4746 L1192.7675,122.4746" fill="#FFFFFF" style="stroke:#000000;stroke-width:1;"/><text fill="#000000" font-family="Verdana" font-size="13" font-weight="bold" lengthAdjust="spacing" textLength="91.0698" x="969.04" y="140.5444">Depends on:</text><text fill="#000000" font-family="Verdana" font-size="13" lengthAdjust="spacing" textLength="194.1685" x="969.04" y="156.3438">- Application.Command.Greet</text><text fill="#000000" font-family="Verdana" font-size="13" lengthAdjust="spacing" textLength="180.9082" x="969.04" y="172.1431">- Application.Usecase.Greet</text><text fill="#000000" font-family="Verdana" font-size="13" lengthAdjust="spacing" textLength="218.7275" x="969.04" y="187.9424">- Application.Port.Outward.Writer</text><text fill="#000000" font-family="Verdana" font-size="13" lengthAdjust="spacing" textLength="5.9033" x="969.04" y="203.7417">-</text><text fill="#000000" font-family="Verdana" font-size="13" font-weight="bold" lengthAdjust="spacing" textLength="123.9316" x="979.5136" y="203.7417">Application.Error</text><text fill="#000000" font-family="Verdana" font-size="13" lengthAdjust="spacing" textLength="17" x="1108.0156" y="203.7417">&#9989;</text><text fill="#000000" font-family="Verdana" font-size="13" lengthAdjust="spacing" textLength="4.5703" x="969.04" y="219.541">&#160;</text><text fill="#000000" font-family="Verdana" font-size="13" font-weight="bold" lengthAdjust="spacing" textLength="109.1733" x="969.04" y="235.3403">Cannot access:</text><text fill="#000000" font-family="Verdana" font-size="13" lengthAdjust="spacing" textLength="150.085" x="969.04" y="251.1396">&#10060; Domain.* packages</text></g><!--entity InfraConsole--><g class="entity" data-entity="InfraConsole" data-source-line="31" data-uid="ent0013" id="entity_InfraConsole"><rect fill="#FFFFFF" height="37.0146" rx="2.5" ry="2.5" style="stroke:#000000;stroke-width:1;" width="290.6211" x="1414.59" y="172.1646"/><text fill="#000000" font-family="Verdana" font-size="14" lengthAdjust="spacing" textLength="270.6211" x="1424.59" y="196.2398">Infrastructure.Adapter.Console_Writer</text></g><g class="entity" data-entity="GMN14" data-source-line="33" data-uid="ent0015" id="entity_GMN14"><path d="M1740.04,154.0746 L1740.04,186.6746 L1705.51,190.6746 L1740.04,194.6746 L1740.04,227.2719 A0,0 0 0 0 1740.04,227.2719 L1979.7675,227.2719 A0,0 0 0 0 1979.7675,227.2719 L1979.7675,164.0746 L1969.7675,154.0746 L1740.04,154.0746 A0,0 0 0 0 1740.04,154.0746" fill="#FFFFFF" style="stroke:#000000;stroke-width:1;"/><path d="M1969.7675,154.0746 L1969.7675,164.0746 L1979.7675,164.0746 L1969.7675,154.0746" fill="#FFFFFF" style="stroke:#000000;stroke-width:1;"/><text fill="#000000" font-family="Verdana" font-size="13" font-weight="bold" lengthAdjust="spacing" textLength="91.0698" x="1746.04" y="172.1444">Depends on:</text><text fill="#000000" font-family="Verdana" font-size="13" lengthAdjust="spacing" textLength="218.7275" x="1746.04" y="187.9438">- Application.Port.Outward.Writer</text><text fill="#000000" font-family="Verdana" font-size="13" lengthAdjust="spacing" textLength="172.9111" x="1746.04" y="203.7431">- Domain.Error (direct) &#9989;</text><text fill="#000000" font-family="Verdana" font-size="13" lengthAdjust="spacing" textLength="152.2993" x="1746.04" y="219.5424">- Domain.Value_Object</text></g><!--entity AppError--><g class="entity" data-entity="AppError" data-source-line="41" data-uid="ent0018" id="entity_AppError"><rect fill="#FFFF99" height="37.0146" rx="2.5" ry="2.5" style="stroke:#000000;stroke-width:1;" width="137.4824" x="254.16" y="464.8546"/><text fill="#000000" font-family="Verdana" font-size="14" lengthAdjust="spacing" textLength="117.4824" x="264.16" y="488.9298">Application.Error</text></g><!--entity AppCommand--><g class="entity" data-entity="AppCommand" data-source-line="42" data-uid="ent0019" id="entity_AppCommand"><rect fill="#FFFFFF" height="37.0146" rx="2.5" ry="2.5" style="stroke:#000000;stroke-width:1;" width="217.8252" x="936.99" y="464.8546"/><text fill="#000000" font-family="Verdana" font-size="14" lengthAdjust="spacing" textLength="197.8252" x="946.99" y="488.9298">Application.Command.Greet</text></g><!--entity AppUsecase--><g class="entity" data-entity="AppUsecase" data-source-line="43" data-uid="ent0020" id="entity_AppUsecase"><rect fill="#FFFFFF" height="37.0146" rx="2.5" ry="2.5" style="stroke:#000000;stroke-width:1;" width="203.5449" x="698.13" y="464.8546"/><text fill="#000000" font-family="Verdana" font-size="14" lengthAdjust="spacing" textLength="183.5449" x="708.13" y="488.9298">Application.Usecase.Greet</text></g><!--entity AppWriter--><g class="entity" data-entity="AppWriter" data-source-line="44" data-uid="ent0021" id="entity_AppWriter"><rect fill="#FFFFFF" height="37.0146" rx="2.5" ry="2.5" style="stroke:#000000;stroke-width:1;" width="244.2734" x="1189.77" y="464.8546"/><text fill="#000000" font-family="Verdana" font-size="14" lengthAdjust="spacing" textLength="224.2734" x="1199.77" y="488.9298">Application.Port.Outward.Writer</text></g><!--entity AppUnit--><g class="entity" data-entity="AppUnit" data-source-line="45" data-uid="ent0022" id="entity_AppUnit"><rect fill="#FFFFFF" height="37.0146" rx="2.5" ry="2.5" style="stroke:#000000;stroke-width:1;" width="176.9668" x="1469.42" y="464.8546"/><text fill="#000000" font-family="Verdana" font-size="14" lengthAdjust="spacing" textLength="156.9668" x="1479.42" y="488.9298">Application.Model.Unit</text></g><g class="entity" data-entity="GMN23" data-source-line="48" data-uid="ent0024" id="entity_GMN23"><path d="M426.39,359.8646 L426.39,479.3646 L391.85,483.3646 L426.39,487.3646 L426.39,606.8544 A0,0 0 0 0 426.39,606.8544 L663.4261,606.8544 A0,0 0 0 0 663.4261,606.8544 L663.4261,369.8646 L653.4261,359.8646 L426.39,359.8646 A0,0 0 0 0 426.39,359.8646" fill="#FFFFFF" style="stroke:#000000;stroke-width:1;"/><path d="M653.4261,359.8646 L653.4261,369.8646 L663.4261,369.8646 L653.4261,359.8646" fill="#FFFFFF" style="stroke:#000000;stroke-width:1;"/><text fill="#000000" font-family="Verdana" font-size="13" font-weight="bold" lengthAdjust="spacing" textLength="182.6729" x="432.39" y="377.9344">Re-exports Domain.Error</text><text fill="#000000" font-family="Verdana" font-size="13" lengthAdjust="spacing" textLength="171.3359" x="432.39" y="393.7338">For Presentation layer use</text><text fill="#000000" font-family="Verdana" font-size="13" lengthAdjust="spacing" textLength="4.5703" x="432.39" y="409.5331">&#160;</text><text fill="#000000" font-family="Verdana" font-size="13" lengthAdjust="spacing" textLength="48.5088" x="432.39" y="425.3324">```ada</text><text fill="#000000" font-family="Verdana" font-size="13" lengthAdjust="spacing" textLength="125.6646" x="432.39" y="441.1317">with Domain.Error;</text><text fill="#000000" font-family="Verdana" font-size="13" lengthAdjust="spacing" textLength="4.5703" x="432.39" y="456.931">&#160;</text><text fill="#000000" font-family="Verdana" font-size="13" lengthAdjust="spacing" textLength="182.5967" x="432.39" y="472.7303">package Application.Error is</text><text fill="#000000" font-family="Verdana" font-size="13" lengthAdjust="spacing" textLength="143.8062" x="441.5306" y="488.5296">subtype Error_Type is</text><text fill="#000000" font-family="Verdana" font-size="13" lengthAdjust="spacing" textLength="170.8345" x="450.6713" y="504.329">Domain.Error.Error_Type;</text><text fill="#000000" font-family="Verdana" font-size="13" lengthAdjust="spacing" textLength="141.1592" x="441.5306" y="520.1283">subtype Error_Kind is</text><text fill="#000000" font-family="Verdana" font-size="13" lengthAdjust="spacing" textLength="168.1875" x="450.6713" y="535.9276">Domain.Error.Error_Kind;</text><text fill="#000000" font-family="Verdana" font-size="13" lengthAdjust="spacing" textLength="206.8955" x="441.5306" y="551.7269">package Error_Strings renames</text><text fill="#000000" font-family="Verdana" font-size="13" lengthAdjust="spacing" textLength="185.5103" x="450.6713" y="567.5262">Domain.Error.Error_Strings;</text><text fill="#000000" font-family="Verdana" font-size="13" lengthAdjust="spacing" textLength="143.6348" x="432.39" y="583.3255">end Application.Error;</text><text fill="#000000" font-family="Verdana" font-size="13" lengthAdjust="spacing" textLength="24.7939" x="432.39" y="599.1249">```</text></g><!--entity DomainError--><g class="entity" data-entity="DomainError" data-source-line="67" data-uid="ent0027" id="entity_DomainError"><rect fill="#FFFFFF" height="37.0146" rx="2.5" ry="2.5" style="stroke:#000000;stroke-width:1;" width="114.377" x="404.72" y="718.0446"/><text fill="#000000" font-family="Verdana" font-size="14" lengthAdjust="spacing" textLength="94.377" x="414.72" y="742.1198">Domain.Error</text></g><!--entity DomainResult--><g class="entity" data-entity="DomainResult" data-source-line="68" data-uid="ent0028" id="entity_DomainResult"><rect fill="#FFFFFF" height="37.0146" rx="2.5" ry="2.5" style="stroke:#000000;stroke-width:1;" width="295.4814" x="1010.16" y="718.0446"/><text fill="#000000" font-family="Verdana" font-size="14" lengthAdjust="spacing" textLength="275.4814" x="1020.16" y="742.1198">Domain.Error.Result.Generic_Result[T]</text></g><!--entity DomainPerson--><g class="entity" data-entity="DomainPerson" data-source-line="69" data-uid="ent0029" id="entity_DomainPerson"><rect fill="#FFFFFF" height="37.0146" rx="2.5" ry="2.5" style="stroke:#000000;stroke-width:1;" width="225.2354" x="750.29" y="718.0446"/><text fill="#000000" font-family="Verdana" font-size="14" lengthAdjust="spacing" textLength="205.2354" x="760.29" y="742.1198">Domain.Value_Object.Person</text></g><g class="entity" data-entity="GMN30" data-source-line="72" data-uid="ent0031" id="entity_GMN30"><path d="M554.51,707.8546 L554.51,732.5546 L519.35,736.5546 L554.51,740.5546 L554.51,765.2526 A0,0 0 0 0 554.51,765.2526 L715.3044,765.2526 A0,0 0 0 0 715.3044,765.2526 L715.3044,717.8546 L705.3044,707.8546 L554.51,707.8546 A0,0 0 0 0 554.51,707.8546" fill="#FFFFFF" style="stroke:#000000;stroke-width:1;"/><path d="M705.3044,707.8546 L705.3044,717.8546 L715.3044,717.8546 L705.3044,707.8546" fill="#FFFFFF" style="stroke:#000000;stroke-width:1;"/><text fill="#000000" font-family="Verdana" font-size="13" font-weight="bold" lengthAdjust="spacing" textLength="137.5854" x="560.51" y="725.9244">Zero dependencies</text><text fill="#000000" font-family="Verdana" font-size="13" lengthAdjust="spacing" textLength="116.6318" x="560.51" y="741.7238">Pure domain logic</text><text fill="#000000" font-family="Verdana" font-size="13" lengthAdjust="spacing" textLength="139.7944" x="560.51" y="757.5231">Canonical error types</text></g><!--link PresentationGreet to AppCommand--><g class="link" data-entity-1="PresentationGreet" data-entity-2="AppCommand" data-source-line="79" data-uid="lnk33" id="link_PresentationGreet_AppCommand"><path d="M818.31,209.5846 C842.29,233.2046 885.12,276.3846 918.91,315.8646 C963.58,368.0746 1008.0269,429.0591 1030.0569,459.9591" fill="none" id="PresentationGreet-to-AppCommand" style="stroke:#000000;stroke-width:1;"/><polygon fill="#000000" points="1033.54,464.8446,1031.5724,455.1943,1030.6374,460.7734,1025.0584,459.8384,1033.54,464.8446" style="stroke:#000000;stroke-width:1;"/><text fill="#000000" font-family="Verdana" font-size="13" lengthAdjust="spacing" textLength="62.3467" x="910.77" y="304.9344">uses DTO</text></g><!--link PresentationGreet to AppUsecase--><g class="link" data-entity-1="PresentationGreet" data-entity-2="AppUsecase" data-source-line="80" data-uid="lnk34" id="link_PresentationGreet_AppUsecase"><path d="M799.91,209.4146 C799.91,261.3146 799.91,406.4046 799.91,458.4746" fill="none" id="PresentationGreet-to-AppUsecase" style="stroke:#000000;stroke-width:1;"/><polygon fill="#000000" points="799.91,464.4746,803.91,455.4746,799.91,459.4746,795.91,455.4746,799.91,464.4746" style="stroke:#000000;stroke-width:1;"/><text fill="#000000" font-family="Verdana" font-size="13" lengthAdjust="spacing" textLength="28.4883" x="800.91" y="304.9344">calls</text></g><!--link PresentationGreet to AppWriter--><g class="link" data-entity-1="PresentationGreet" data-entity-2="AppWriter" data-source-line="81" data-uid="lnk35" id="link_PresentationGreet_AppWriter"><path d="M821.64,209.3346 C848.9,230.4846 897.93,265.2646 945.91,282.8646 C993.55,300.3546 1127.57,291.1646 1171.91,315.8646 C1236.24,351.7046 1280.9301,424.2801 1299.9401,459.3401" fill="none" id="PresentationGreet-to-AppWriter" style="stroke:#000000;stroke-width:1;"/><polygon fill="#000000" points="1302.8,464.6146,1302.0265,454.7962,1300.4167,460.2192,1294.9937,458.6094,1302.8,464.6146" style="stroke:#000000;stroke-width:1;"/><text fill="#000000" font-family="Verdana" font-size="13" lengthAdjust="spacing" textLength="74.5596" x="1149.49" y="304.9344">uses Result</text></g><!--link PresentationGreet to AppError--><g class="link" data-entity-1="PresentationGreet" data-entity-2="AppError" data-source-line="82" data-uid="lnk36" id="link_PresentationGreet_AppError"><path d="M770.8,209.5746 C735.47,230.4646 673.47,264.4846 615.91,282.8646 C527.16,311.2046 484.4,261.2746 408.91,315.8646 C357.63,352.9446 335.9909,423.951 327.8909,458.731" fill="none" id="PresentationGreet-to-AppError" style="stroke:#000000;stroke-width:1;"/><polygon fill="#000000" points="326.53,464.5746,332.4671,456.7165,327.6641,459.7049,324.6757,454.9019,326.53,464.5746" style="stroke:#000000;stroke-width:1;"/><text fill="#000000" font-family="Verdana" font-size="13" lengthAdjust="spacing" textLength="51.0869" x="577.52" y="304.9344">uses &#9989;</text></g><!--link InfraConsole to AppWriter--><g class="link" data-entity-1="InfraConsole" data-entity-2="AppWriter" data-source-line="84" data-uid="lnk37" id="link_InfraConsole_AppWriter"><path d="M1544.43,209.2746 C1523.38,233.2746 1484.59,277.6446 1451.91,315.8646 C1405.76,369.8246 1355.7299,429.7143 1330.3599,460.1743" fill="none" id="InfraConsole-to-AppWriter" style="stroke:#000000;stroke-width:1;"/><polygon fill="#000000" points="1326.52,464.7846,1335.3534,460.4291,1329.7199,460.9427,1329.2063,455.3092,1326.52,464.7846" style="stroke:#000000;stroke-width:1;"/><text fill="#000000" font-family="Verdana" font-size="13" lengthAdjust="spacing" textLength="76.1338" x="1473.43" y="304.9344">implements</text></g><!--link InfraConsole to DomainError--><g class="link" data-entity-1="InfraConsole" data-entity-2="DomainError" data-source-line="85" data-uid="lnk38" id="link_InfraConsole_DomainError"><path d="M1581.73,209.5746 C1606.65,231.5646 1646.01,271.4746 1661.91,315.8646 C1709.09,447.6746 1757.41,528.4946 1661.91,630.8546 C1634.55,660.1746 1341.97,654.2546 1301.91,655.8546 C1280.67,656.7046 556.59,655.8446 536.91,663.8546 C510.04,674.7946 490.9262,695.5468 477.7462,712.9968" fill="none" id="InfraConsole-to-DomainError" style="stroke:#000000;stroke-width:1;"/><polygon fill="#000000" points="474.13,717.7846,482.7462,713.0137,477.1435,713.7948,476.3625,708.1921,474.13,717.7846" style="stroke:#000000;stroke-width:1;"/><text fill="#000000" font-family="Verdana" font-size="13" lengthAdjust="spacing" textLength="51.0869" x="1717.87" y="488.9344">uses &#9989;</text></g><!--link AppCommand to DomainPerson--><g class="link" data-entity-1="AppCommand" data-entity-2="DomainPerson" data-source-line="87" data-uid="lnk39" id="link_AppCommand_DomainPerson"><path d="M1033.04,502.0246 C999.52,548.0346 913.3134,666.3654 879.5334,712.7254" fill="none" id="AppCommand-to-DomainPerson" style="stroke:#000000;stroke-width:1;"/><polygon fill="#000000" points="876,717.5746,884.5329,712.6563,878.9445,713.5336,878.0672,707.9451,876,717.5746" style="stroke:#000000;stroke-width:1;"/><text fill="#000000" font-family="Verdana" font-size="13" lengthAdjust="spacing" textLength="29.5166" x="933.63" y="652.9244">uses</text></g><!--link AppUsecase to DomainPerson--><g class="link" data-entity-1="AppUsecase" data-entity-2="DomainPerson" data-source-line="88" data-uid="lnk40" id="link_AppUsecase_DomainPerson"><path d="M804.34,502.0246 C815.87,548.0346 845.3101,665.3949 856.9401,711.7549" fill="none" id="AppUsecase-to-DomainPerson" style="stroke:#000000;stroke-width:1;"/><polygon fill="#000000" points="858.4,717.5746,860.0899,707.8718,857.1834,712.7249,852.3303,709.8184,858.4,717.5746" style="stroke:#000000;stroke-width:1;"/><text fill="#000000" font-family="Verdana" font-size="13" lengthAdjust="spacing" textLength="58.1826" x="843.53" y="652.9244">validates</text></g><!--link AppWriter to DomainResult--><g class="link" data-entity-1="AppWriter" data-entity-2="DomainResult" data-source-line="89" data-uid="lnk41" id="link_AppWriter_DomainResult"><path d="M1301.08,502.0246 C1272.87,548.0346 1200.4858,666.0993 1172.0658,712.4593" fill="none" id="AppWriter-to-DomainResult" style="stroke:#000000;stroke-width:1;"/><polygon fill="#000000" points="1168.93,717.5746,1177.044,711.9922,1171.5432,713.3118,1170.2235,707.8111,1168.93,717.5746" style="stroke:#000000;stroke-width:1;"/><text fill="#000000" font-family="Verdana" font-size="13" lengthAdjust="spacing" textLength="75.8608" x="1217.58" y="652.9244">instantiates</text></g><!--link AppError to DomainError--><g class="link" data-entity-1="AppError" data-entity-2="DomainError" data-source-line="90" data-uid="lnk42" id="link_AppError_DomainError"><path d="M332.68,502.0246 C358.14,548.0346 423.3944,665.9651 449.0544,712.3251" fill="none" id="AppError-to-DomainError" style="stroke:#000000;stroke-width:1;"/><polygon fill="#000000" points="451.96,717.5746,451.1013,707.7633,449.5387,713.2,444.1019,711.6374,451.96,717.5746" style="stroke:#000000;stroke-width:1;"/><text fill="#000000" font-family="Verdana" font-size="13" lengthAdjust="spacing" textLength="68.0659" x="417.94" y="652.9244">re-exports</text></g><!--link PresentationGreet to DomainError--><g class="link" data-entity-1="PresentationGreet" data-entity-2="DomainError" data-source-line="93" data-uid="lnk43" id="link_PresentationGreet_DomainError"><path d="M772.97,209.5946 C738.32,231.5346 675.5,267.6546 615.91,282.8646 C560.88,296.9046 144.4,274.1246 105.91,315.8646 C11,418.7846 22.03,518.7646 105.91,630.8546 C141.75,678.7646 307.0771,711.3157 398.3671,726.0957" fill="none" id="PresentationGreet-to-DomainError" style="stroke:#FF0000;stroke-width:1;stroke-dasharray:7,7;"/><polygon fill="#FF0000" points="404.29,727.0546,396.045,721.6676,399.3543,726.2555,394.7664,729.5648,404.29,727.0546" style="stroke:#FF0000;stroke-width:1;"/><text fill="#000000" font-family="Verdana" font-size="13" lengthAdjust="spacing" textLength="100.6748" x="121.8582" y="480.9344">&#10060; FORBIDDEN</text><text fill="#000000" font-family="Verdana" font-size="13" lengthAdjust="spacing" textLength="130.5713" x="106.91" y="496.7338">No transitive access</text></g><g class="legend" data-source-line="95"><rect fill="none" height="452.3809" rx="7.5" ry="7.5" style="stroke:#000000;stroke-width:1;" width="514" x="739.455" y="791.2546"/><text fill="#000000" font-family="Verdana" font-size="14" font-weight="bold" lengthAdjust="spacing" textLength="224.6494" x="744.455" y="810.3298">Package Naming Convention</text><text fill="#000000" font-family="Verdana" font-size="14" lengthAdjust="spacing" textLength="504" x="744.455" y="827.3445">&#9552;&#9552;&#9552;&#9552;&#9552;&#9552;&#9552;&#9552;&#9552;&#9552;&#9552;&#9552;&#9552;&#9552;&#9552;&#9552;&#9552;&#9552;&#9552;&#9552;&#9552;&#9552;&#9552;&#9552;&#9552;&#9552;&#9552;&#9552;&#9552;&#9552;&#9552;&#9552;&#9552;&#9552;&#9552;&#9552;</text><text fill="#000000" font-family="Verdana" font-size="14" lengthAdjust="spacing" textLength="266.5127" x="744.455" y="844.3591">All packages use hierarchical naming:</text><text fill="#000000" font-family="Verdana" font-size="14" lengthAdjust="spacing" textLength="234.9648" x="744.455" y="861.3738">&#8226; Parent.Child.Grandchild pattern</text><text fill="#000000" font-family="Verdana" font-size="14" lengthAdjust="spacing" textLength="203.0068" x="744.455" y="878.3884">&#8226; Singular nouns (not plural)</text><text fill="#000000" font-family="Verdana" font-size="14" lengthAdjust="spacing" textLength="246.7773" x="744.455" y="895.403">&#8226; Lowercase filenames with dashes</text><text fill="#000000" font-family="Verdana" font-size="14" lengthAdjust="spacing" textLength="4.9219" x="744.455" y="912.4177">&#160;</text><text fill="#000000" font-family="Verdana" font-size="14" font-weight="bold" lengthAdjust="spacing" textLength="72.5977" x="744.455" y="929.4323">Example:</text><text fill="#000000" font-family="Verdana" font-size="14" lengthAdjust="spacing" textLength="286.9727" x="744.455" y="946.447">&#8226; Package: Domain.Value_Object.Person</text><text fill="#000000" font-family="Verdana" font-size="14" lengthAdjust="spacing" textLength="279.5967" x="744.455" y="963.4616">&#8226; File: domain-value_object-person.ads</text><text fill="#000000" font-family="Verdana" font-size="14" lengthAdjust="spacing" textLength="4.9219" x="744.455" y="980.4763">&#160;</text><text fill="#000000" font-family="Verdana" font-size="14" font-weight="bold" lengthAdjust="spacing" textLength="144.4844" x="744.455" y="997.4909">Dependency Rules</text><text fill="#000000" font-family="Verdana" font-size="14" lengthAdjust="spacing" textLength="504" x="744.455" y="1014.5056">&#9552;&#9552;&#9552;&#9552;&#9552;&#9552;&#9552;&#9552;&#9552;&#9552;&#9552;&#9552;&#9552;&#9552;&#9552;&#9552;&#9552;&#9552;&#9552;&#9552;&#9552;&#9552;&#9552;&#9552;&#9552;&#9552;&#9552;&#9552;&#9552;&#9552;&#9552;&#9552;&#9552;&#9552;&#9552;&#9552;</text><text fill="#000000" font-family="Verdana" font-size="14" lengthAdjust="spacing" textLength="297.1611" x="744.455" y="1031.5202">&#9989; Presentation &#8594; Application.* packages</text><text fill="#000000" font-family="Verdana" font-size="14" lengthAdjust="spacing" textLength="396.2617" x="744.455" y="1048.5349">&#9989; Infrastructure &#8594; Application.* + Domain.* packages</text><text fill="#000000" font-family="Verdana" font-size="14" lengthAdjust="spacing" textLength="263.2822" x="744.455" y="1065.5495">&#9989; Application &#8594; Domain.* packages</text><text fill="#000000" font-family="Verdana" font-size="14" lengthAdjust="spacing" textLength="363.8047" x="744.455" y="1082.5642">&#10060; Presentation &#8594; Domain.* packages (forbidden!)</text><text fill="#000000" font-family="Verdana" font-size="14" lengthAdjust="spacing" textLength="4.9219" x="744.455" y="1099.5788">&#160;</text><text fill="#000000" font-family="Verdana" font-size="14" font-weight="bold" lengthAdjust="spacing" textLength="96.4688" x="744.455" y="1116.5935">Key Insight:</text><text fill="#000000" font-family="Verdana" font-size="14" lengthAdjust="spacing" textLength="360.2471" x="744.455" y="1133.6081">Infrastructure and Application CAN access Domain.</text><text fill="#000000" font-family="Verdana" font-size="14" lengthAdjust="spacing" textLength="304.8486" x="744.455" y="1150.6228">Presentation is the ONLY layer that cannot.</text><text fill="#000000" font-family="Verdana" font-size="14" lengthAdjust="spacing" textLength="4.9219" x="744.455" y="1167.6374">&#160;</text><text fill="#000000" font-family="Verdana" font-size="14" font-weight="bold" lengthAdjust="spacing" textLength="43.5176" x="744.455" y="1184.6521">Why?</text><text fill="#000000" font-family="Verdana" font-size="14" lengthAdjust="spacing" textLength="286.125" x="744.455" y="1201.6667">Domain is shareable across applications.</text><text fill="#000000" font-family="Verdana" font-size="14" lengthAdjust="spacing" textLength="247.8232" x="744.455" y="1218.6814">Presentation is application-specific.</text><text fill="#000000" font-family="Verdana" font-size="14" lengthAdjust="spacing" textLength="265.959" x="744.455" y="1235.696">Application acts as the contract layer.</text></g><!--SRC=[lLTBRoD54BxFhwZD7aYCF1A2NH570YMnPuas996J9G8M9UsPZgVPTlUekoTP2o5nWHC7XCGDBloq_1Ag7sFtUCOHfvKYPLBrrVlHbMUcf0iA5ITC9FeT4nLHP06vN5HIK64kpP9JK3GtHCmvJHB3318ksQBYzEQhvKon0ePmGV9tP8vqe-hSr8g-5OVuc_26eu49c92yX5Eof2f9xj0CXPqZAOqsYbIUlWFFisnoT3o6dn9OUn7XqkFJanqW6bOK921MI8D-idbfGDvjCW46WsEhJ3F3f80fiWS3nnZ2DLFe7k4S2bfHKL2HCwe3ynKLLB4SlTUO0SE8bG-ymwhYB7SKG2VL4Yh9X44kQd4E9J-l0hr08mZow2ZMpoQVRCOQGssuARg-8A98NobAZGi-XZXg9mDz29k6iOjHWnIZLGQYGDgsUlXlDCs9fblv5rAPzBms3qGLwRLY1eljKOD1Z9ie9TLW08z__veq5I82Om2IvrJhnhl7Vtw7iLnWUwO3g48pzQVuHE27RZfmbUJ9o-pJBDjCSXkS7XQaGbSnVA4bThRttENQ8GEza-ODvl_9yFOCXJXTQc2tO7Rizbo6Mlnl2A_fpVdiHsJtPoBkp5KQFizUJFOtqz0fYGiPgTu9xD0isz_VBjDjJUG6udQfLXCrKe6uNQedSOtiAerRHB-M1UNf6y7Mrl0xwPIp2JoKSag7z7s5PdMhDg6i6IQeDTRSfXfgZC7nRszlIK7SvmCpPKl5WOU4XePE6O3v3GIWwvbPLXGS-URAVgvuqDAPhY47lSAl6RRAqy8MqWWtpdaEhdOcvXhV0e4zzgII0FLwR7jsmZje4jJVlrvdj2Qp_SdBpTQD3RkgUa9Jlot8T4frpKqQ5lkD__FxgnyY5PxMgoEUlVI2AYr59EW9tRPgUsOxwpkgPEkz2JrrOJTNuSFdSivoHyNDA0Kca0DrpM5hkha4Fu9nf0vsStIRgg6c55_rEMuF-yAv1meVCpj2UqddZO1X8H_4y8jeY65a6ne3l3f_6X_65_7e9zTFW_syDhf3lf-Ky5CH1DoZ4Q_UNjtkHbcWHjsFZQhIKXm5tuRwyWPi4iMy1NPFE2k8yTZWLXlg8xU-hkuBZ_PUzNkgLbl9LXstq8mLMFPrEorXLvSeQHlpdadkCjfNxjHrQDesy5nHMtNxy6RdqwEJyNXozbQSIS1xIjW3wfw6Dpf9E9tR7fn9O-GYiOtTN89dP67R3dD-ZpRHeclmnx_- -60_QExGjdnpW6BHe6HK4PMNRfQ4St5atVhbNpnKSREPzBXat3vdMFtSVgAymRg9WBf4YPeJXMDN2vmoUx1Kl5Q4xmN4gNoWodN57UD-L_hrNn1TOd5TbYRlYMrEVo1uwyxB4MpVCm6PeTPHM173UmUJ3ZQi72mbHJ0oNlV3jEPXnNpW2k10jT_8nz_-R3q7hQFEeZUkk2x-uzvxq8h6Pu-LwyLXMtSSwW1XzwuPgsTxFfklwH9zqtPWVDas72NjTmwE3y_2c3JgKQPbcMd0_xxW_Epqst0wc98ON9_s34wzrUjo-QMp5fv4bD4bTYgPSJk5Ig9wihQg-un4_A6kQCxkM6vniRSannk7U8ToYV_C8C4xbIROH7xEa_y0]--></g></svg>