<svg xmlns="http://www.w3.org/2000/svg" xmlns:xlink="http://www.w3.org/1999/xlink" contentStyleType="text/css" data-diagram-type="CLASS" height="399px" preserveAspectRatio="none" style="width:1345px;height:399px;background:#FFFFFF;" version="1.1" viewBox="0 0 1345 399" width="1345px" zoomAndPan="magnify"><title>Static vs Dynamic Dispatch - Dependency Injection in Ada</title><defs/><g><g class="title" data-source-line="4"><text fill="#000000" font-family="Verdana" font-size="22" font-weight="bold" lengthAdjust="spacing" textLength="717.374" x="309.5331" y="37.1182">Static vs Dynamic Dispatch - Dependency Injection in Ada</text></g><!--cluster DynamicPkg--><g class="cluster" data-entity="DynamicPkg" data-source-line="6" data-uid="ent0002" id="cluster_DynamicPkg"><path d="M13.5,82.0473 L374.2412,82.0473 A3.75,3.75 0 0 1 376.7412,84.5473 L383.7412,105.062 L414.5,105.062 A2.5,2.5 0 0 1 417,107.562 L417,367.1773 A2.5,2.5 0 0 1 414.5,369.6773 L13.5,369.6773 A2.5,2.5 0 0 1 11,367.1773 L11,84.5473 A2.5,2.5 0 0 1 13.5,82.0473" fill="#FFE4E1" style="stroke:#000000;stroke-width:1;"/><line style="stroke:#000000;stroke-width:1;" x1="11" x2="383.7412" y1="105.062" y2="105.062"/><text fill="#000000" font-family="Verdana" font-size="14" font-weight="bold" lengthAdjust="spacing" textLength="359.7412" x="15" y="98.1225">Dynamic Dispatch\n(Runtime Polymorphism)</text></g><!--cluster StaticPkg--><g class="cluster" data-entity="StaticPkg" data-source-line="24" data-uid="ent0009" id="cluster_StaticPkg"><path d="M612.5,58.7373 L992.6211,58.7373 A3.75,3.75 0 0 1 995.1211,61.2373 L1002.1211,81.752 L1049.5,81.752 A2.5,2.5 0 0 1 1052,84.252 L1052,390.4873 A2.5,2.5 0 0 1 1049.5,392.9873 L612.5,392.9873 A2.5,2.5 0 0 1 610,390.4873 L610,61.2373 A2.5,2.5 0 0 1 612.5,58.7373" fill="#E8F5E9" style="stroke:#000000;stroke-width:1;"/><line style="stroke:#000000;stroke-width:1;" x1="610" x2="1002.1211" y1="81.752" y2="81.752"/><text fill="#000000" font-family="Verdana" font-size="14" font-weight="bold" lengthAdjust="spacing" textLength="379.1211" x="614" y="74.8125">Static Dispatch\n(Compile-Time Polymorphism)</text></g><!--class Writer_Port--><g class="entity" data-entity="Writer_Port" data-source-line="7" data-uid="ent0003" id="entity_Writer_Port"><rect fill="#FFFFFF" height="74.6133" rx="2.5" ry="2.5" style="stroke:#000000;stroke-width:1;" width="134.4277" x="266.79" y="119.7573"/><ellipse cx="291.3037" cy="140.5566" fill="#FFFFFF" rx="9" ry="9" style="stroke:#000000;stroke-width:1;"/><path d="M287.7314,136.8218 L287.7314,134.6636 L295.1108,134.6636 L295.1108,136.8218 L292.6455,136.8218 L292.6455,144.8984 L295.1108,144.8984 L295.1108,147.0566 L287.7314,147.0566 L287.7314,144.8984 L290.1967,144.8984 L290.1967,136.8218 Z " fill="#000000"/><text fill="#000000" font-family="Verdana" font-size="12" font-style="italic" lengthAdjust="spacing" textLength="68.1797" x="312.1933" y="136.8218">&#171;interface&#187;</text><text fill="#000000" font-family="Verdana" font-size="14" font-style="italic" lengthAdjust="spacing" textLength="80.8418" x="305.8623" y="153.4165">Writer_Port</text><line style="stroke:#000000;stroke-width:1;" x1="267.79" x2="400.2177" y1="161.3559" y2="161.3559"/><line style="stroke:#000000;stroke-width:1;" x1="267.79" x2="400.2177" y1="169.3559" y2="169.3559"/><ellipse cx="277.79" cy="183.3633" fill="#FFFFFF" rx="3" ry="3" style="stroke:#000000;stroke-width:1;"/><text fill="#000000" font-family="Verdana" font-size="14" lengthAdjust="spacing" textLength="110.4277" x="284.79" y="187.4311">Write(Message)</text></g><!--class Console_Writer--><g class="entity" data-entity="Console_Writer" data-source-line="11" data-uid="ent0004" id="entity_Console_Writer"><rect fill="#FFFFFF" height="61.0146" rx="2.5" ry="2.5" style="stroke:#000000;stroke-width:1;" width="135.4951" x="265.25" y="292.6673"/><ellipse cx="278.25" cy="306.6673" fill="#FFFFFF" rx="9" ry="9" style="stroke:#000000;stroke-width:1;"/><path d="M280.7231,312.8104 Q280.1421,313.1092 279.5029,313.2586 Q278.8638,313.408 278.1582,313.408 Q275.6514,313.408 274.3315,311.7562 Q273.0117,310.1043 273.0117,306.9832 Q273.0117,303.8538 274.3315,302.202 Q275.6514,300.5501 278.1582,300.5501 Q278.8638,300.5501 279.5112,300.6995 Q280.1587,300.8489 280.7231,301.1478 L280.7231,303.8704 Q280.0923,303.2894 279.4988,303.0196 Q278.9053,302.7498 278.2744,302.7498 Q276.9297,302.7498 276.2449,303.8165 Q275.5601,304.8831 275.5601,306.9832 Q275.5601,309.075 276.2449,310.1417 Q276.9297,311.2083 278.2744,311.2083 Q278.9053,311.2083 279.4988,310.9385 Q280.0923,310.6688 280.7231,310.0877 Z " fill="#000000"/><text fill="#000000" font-family="Verdana" font-size="14" lengthAdjust="spacing" textLength="107.4951" x="290.25" y="312.2352">Console_Writer</text><line style="stroke:#000000;stroke-width:1;" x1="266.25" x2="399.7451" y1="320.6673" y2="320.6673"/><line style="stroke:#000000;stroke-width:1;" x1="266.25" x2="399.7451" y1="328.6673" y2="328.6673"/><ellipse cx="276.25" cy="342.6746" fill="#FFFFFF" rx="3" ry="3" style="stroke:#000000;stroke-width:1;"/><text fill="#000000" font-family="Verdana" font-size="14" lengthAdjust="spacing" textLength="110.4277" x="283.25" y="346.7425">Write(Message)</text></g><!--class Greet_UseCase--><g class="entity" data-entity="Greet_UseCase" data-source-line="15" data-uid="ent0005" id="entity_Greet_UseCase"><rect fill="#FFFFFF" height="78.0293" rx="2.5" ry="2.5" style="stroke:#000000;stroke-width:1;" width="204.8857" x="26.56" y="118.0473"/><ellipse cx="71.4404" cy="132.0473" fill="#FFFFFF" rx="9" ry="9" style="stroke:#000000;stroke-width:1;"/><path d="M73.9135,138.1904 Q73.3325,138.4892 72.6933,138.6386 Q72.0541,138.788 71.3486,138.788 Q68.8417,138.788 67.5219,137.1362 Q66.2021,135.4843 66.2021,132.3632 Q66.2021,129.2338 67.5219,127.582 Q68.8417,125.9301 71.3486,125.9301 Q72.0541,125.9301 72.7016,126.0795 Q73.3491,126.2289 73.9135,126.5278 L73.9135,129.2504 Q73.2827,128.6694 72.6892,128.3996 Q72.0956,128.1298 71.4648,128.1298 Q70.1201,128.1298 69.4352,129.1965 Q68.7504,130.2631 68.7504,132.3632 Q68.7504,134.455 69.4352,135.5217 Q70.1201,136.5883 71.4648,136.5883 Q72.0956,136.5883 72.6892,136.3185 Q73.2827,136.0488 73.9135,135.4677 Z " fill="#000000"/><text fill="#000000" font-family="Verdana" font-size="14" lengthAdjust="spacing" textLength="107.625" x="88.9404" y="137.6152">Greet_UseCase</text><line style="stroke:#000000;stroke-width:1;" x1="27.56" x2="230.4457" y1="146.0473" y2="146.0473"/><rect fill="none" height="6" style="stroke:#000000;stroke-width:1;" width="6" x="34.56" y="157.0546"/><text fill="#000000" font-family="Verdana" font-size="14" lengthAdjust="spacing" textLength="180.8857" x="44.56" y="164.1225">Writer : Writer_Port'Class</text><line style="stroke:#000000;stroke-width:1;" x1="27.56" x2="230.4457" y1="171.062" y2="171.062"/><ellipse cx="37.56" cy="185.0693" fill="#FFFFFF" rx="3" ry="3" style="stroke:#000000;stroke-width:1;"/><text fill="#000000" font-family="Verdana" font-size="14" lengthAdjust="spacing" textLength="68.2021" x="44.56" y="189.1371">Execute()</text></g><!--class StaticCW--><g class="entity" data-entity="StaticCW" data-source-line="25" data-uid="ent0010" id="entity_StaticCW"><rect fill="#FFFFFF" height="74.6133" rx="2.5" ry="2.5" style="stroke:#000000;stroke-width:1;" width="135.4951" x="873.25" y="119.7573"/><ellipse cx="886.25" cy="140.5566" fill="#FFFFFF" rx="9" ry="9" style="stroke:#000000;stroke-width:1;"/><path d="M888.7231,146.6997 Q888.1421,146.9985 887.5029,147.1479 Q886.8638,147.2973 886.1582,147.2973 Q883.6514,147.2973 882.3315,145.6455 Q881.0117,143.9936 881.0117,140.8725 Q881.0117,137.7431 882.3315,136.0913 Q883.6514,134.4394 886.1582,134.4394 Q886.8638,134.4394 887.5112,134.5888 Q888.1587,134.7383 888.7231,135.0371 L888.7231,137.7597 Q888.0923,137.1787 887.4988,136.9089 Q886.9053,136.6391 886.2744,136.6391 Q884.9297,136.6391 884.2449,137.7058 Q883.5601,138.7724 883.5601,140.8725 Q883.5601,142.9643 884.2449,144.031 Q884.9297,145.0976 886.2744,145.0976 Q886.9053,145.0976 887.4988,144.8279 Q888.0923,144.5581 888.7231,143.977 Z " fill="#000000"/><text fill="#000000" font-family="Verdana" font-size="12" font-style="italic" lengthAdjust="spacing" textLength="64.0254" x="919.9849" y="136.8218">&#171;function&#187;</text><text fill="#000000" font-family="Verdana" font-size="14" lengthAdjust="spacing" textLength="107.4951" x="898.25" y="153.4165">Console_Writer</text><line style="stroke:#000000;stroke-width:1;" x1="874.25" x2="1007.7451" y1="161.3559" y2="161.3559"/><line style="stroke:#000000;stroke-width:1;" x1="874.25" x2="1007.7451" y1="169.3559" y2="169.3559"/><text fill="#000000" font-family="Verdana" font-size="14" lengthAdjust="spacing" textLength="110.4277" x="879.25" y="187.4311">Write(Message)</text></g><!--class StaticGUC--><g class="entity" data-entity="StaticGUC" data-source-line="29" data-uid="ent0011" id="entity_StaticGUC"><rect fill="#FFFFFF" height="108.6426" rx="2.5" ry="2.5" style="stroke:#000000;stroke-width:1;" width="204.3467" x="633.83" y="102.7373"/><ellipse cx="646.83" cy="123.5366" fill="#FFFFFF" rx="9" ry="9" style="stroke:#000000;stroke-width:1;"/><path d="M649.3031,129.6797 Q648.7221,129.9785 648.0829,130.1279 Q647.4438,130.2773 646.7382,130.2773 Q644.2314,130.2773 642.9115,128.6255 Q641.5917,126.9736 641.5917,123.8525 Q641.5917,120.7231 642.9115,119.0713 Q644.2314,117.4194 646.7382,117.4194 Q647.4438,117.4194 648.0912,117.5688 Q648.7387,117.7183 649.3031,118.0171 L649.3031,120.7397 Q648.6723,120.1587 648.0788,119.8889 Q647.4853,119.6191 646.8544,119.6191 Q645.5097,119.6191 644.8249,120.6858 Q644.1401,121.7524 644.1401,123.8525 Q644.1401,125.9443 644.8249,127.011 Q645.5097,128.0776 646.8544,128.0776 Q647.4853,128.0776 648.0788,127.8079 Q648.6723,127.5381 649.3031,126.957 Z " fill="#000000"/><text fill="#000000" font-family="Verdana" font-size="12" font-style="italic" lengthAdjust="spacing" textLength="113.4961" x="690.2553" y="119.8018">&#171;generic package&#187;</text><text fill="#000000" font-family="Verdana" font-size="14" lengthAdjust="spacing" textLength="176.3467" x="658.83" y="136.3965">Generic\nGreet_UseCase</text><line style="stroke:#000000;stroke-width:1;" x1="634.83" x2="837.1767" y1="144.3359" y2="144.3359"/><text fill="#000000" font-family="Verdana" font-size="14" font-weight="bold" lengthAdjust="spacing" textLength="58.3379" x="639.83" y="162.4111">generic</text><text fill="#000000" font-family="Verdana" font-size="14" font-weight="bold" lengthAdjust="spacing" textLength="65.208" x="639.83" y="179.4258">package</text><text fill="#000000" font-family="Verdana" font-size="14" lengthAdjust="spacing" textLength="39.0264" x="709.9599" y="179.4258">Greet</text><line style="stroke:#000000;stroke-width:1;" x1="634.83" x2="837.1767" y1="186.3652" y2="186.3652"/><text fill="#000000" font-family="Verdana" font-size="14" lengthAdjust="spacing" textLength="167.6514" x="639.83" y="204.4404">with function Writer(...)</text></g><!--class StaticInst--><g class="entity" data-entity="StaticInst" data-source-line="35" data-uid="ent0012" id="entity_StaticInst"><rect fill="#FFFFFF" height="91.6279" rx="2.5" ry="2.5" style="stroke:#000000;stroke-width:1;" width="255.8516" x="693.07" y="277.3573"/><ellipse cx="746.1501" cy="298.1566" fill="#FFFFFF" rx="9" ry="9" style="stroke:#000000;stroke-width:1;"/><path d="M748.6232,304.2997 Q748.0422,304.5985 747.403,304.7479 Q746.7638,304.8973 746.0583,304.8973 Q743.5514,304.8973 742.2316,303.2455 Q740.9118,301.5936 740.9118,298.4725 Q740.9118,295.3431 742.2316,293.6913 Q743.5514,292.0394 746.0583,292.0394 Q746.7638,292.0394 747.4113,292.1888 Q748.0588,292.3383 748.6232,292.6371 L748.6232,295.3597 Q747.9924,294.7787 747.3989,294.5089 Q746.8054,294.2391 746.1745,294.2391 Q744.8298,294.2391 744.145,295.3058 Q743.4601,296.3724 743.4601,298.4725 Q743.4601,300.5643 744.145,301.631 Q744.8298,302.6976 746.1745,302.6976 Q746.8054,302.6976 747.3989,302.4279 Q747.9924,302.1581 748.6232,301.577 Z " fill="#000000"/><text fill="#000000" font-family="Verdana" font-size="12" font-style="italic" lengthAdjust="spacing" textLength="146.1914" x="761.6501" y="294.4218">&#171;wired at compile time&#187;</text><text fill="#000000" font-family="Verdana" font-size="14" lengthAdjust="spacing" textLength="89.3115" x="790.09" y="311.0165">Instantiation</text><line style="stroke:#000000;stroke-width:1;" x1="694.07" x2="947.9216" y1="318.9559" y2="318.9559"/><text fill="#000000" font-family="Verdana" font-size="14" lengthAdjust="spacing" textLength="207.0947" x="699.07" y="337.0311">package Greet_With_Console</text><line style="stroke:#000000;stroke-width:1;" x1="694.07" x2="947.9216" y1="343.9706" y2="343.9706"/><text fill="#000000" font-family="Verdana" font-size="14" lengthAdjust="spacing" textLength="243.8516" x="699.07" y="362.0458">is new Greet(Writer =&gt; CW.Write)</text></g><g class="entity" data-entity="GMN15" data-source-line="45" data-uid="ent0016" id="entity_GMN15"><path d="M435.72,96.7673 L435.72,217.3625 L586.282,217.3625 L586.282,106.7673 L576.282,96.7673 L435.72,96.7673" fill="#FFFFFF" style="stroke:#000000;stroke-width:1;"/><path d="M576.282,96.7673 L576.282,106.7673 L586.282,106.7673 L576.282,96.7673" fill="#FFFFFF" style="stroke:#000000;stroke-width:1;"/><text fill="#000000" font-family="Verdana" font-size="13" font-weight="bold" lengthAdjust="spacing" textLength="103.0859" x="441.72" y="114.8371">Runtime Cost:</text><text fill="#000000" font-family="Verdana" font-size="13" lengthAdjust="spacing" textLength="100.8262" x="441.72" y="130.6364">&#8226; Vtable lookup</text><text fill="#000000" font-family="Verdana" font-size="13" lengthAdjust="spacing" textLength="111.8711" x="441.72" y="146.4358">&#8226; Heap allocation</text><text fill="#000000" font-family="Verdana" font-size="13" lengthAdjust="spacing" textLength="80.8945" x="441.72" y="162.2351">&#8226; No inlining</text><text fill="#000000" font-family="Verdana" font-size="13" lengthAdjust="spacing" textLength="4.5703" x="441.72" y="178.0344">&#160;</text><text fill="#000000" font-family="Verdana" font-size="13" font-weight="bold" lengthAdjust="spacing" textLength="65.2285" x="441.72" y="193.8337">Benefits:</text><text fill="#000000" font-family="Verdana" font-size="13" lengthAdjust="spacing" textLength="129.562" x="441.72" y="209.633">&#8226; Runtime flexibility</text></g><g class="entity" data-entity="GMN18" data-source-line="55" data-uid="ent0019" id="entity_GMN18"><path d="M1079.38,96.7673 L1079.38,198.9873 L838.45,202.9873 L1079.38,206.9873 L1079.38,217.3625 A0,0 0 0 0 1079.38,217.3625 L1252.6222,217.3625 A0,0 0 0 0 1252.6222,217.3625 L1252.6222,106.7673 L1242.6222,96.7673 L1079.38,96.7673 A0,0 0 0 0 1079.38,96.7673" fill="#FFFFFF" style="stroke:#000000;stroke-width:1;"/><path d="M1242.6222,96.7673 L1242.6222,106.7673 L1252.6222,106.7673 L1242.6222,96.7673" fill="#FFFFFF" style="stroke:#000000;stroke-width:1;"/><text fill="#000000" font-family="Verdana" font-size="13" font-weight="bold" lengthAdjust="spacing" textLength="142.27" x="1085.38" y="114.8371">Compile-Time Cost:</text><text fill="#000000" font-family="Verdana" font-size="13" lengthAdjust="spacing" textLength="107.0723" x="1085.38" y="130.6364">&#8226; Zero overhead</text><text fill="#000000" font-family="Verdana" font-size="13" lengthAdjust="spacing" textLength="136.0938" x="1085.38" y="146.4358">&#8226; Direct call (inlined)</text><text fill="#000000" font-family="Verdana" font-size="13" lengthAdjust="spacing" textLength="114.7339" x="1085.38" y="162.2351">&#8226; Stack allocation</text><text fill="#000000" font-family="Verdana" font-size="13" lengthAdjust="spacing" textLength="4.5703" x="1085.38" y="178.0344">&#160;</text><text fill="#000000" font-family="Verdana" font-size="13" font-weight="bold" lengthAdjust="spacing" textLength="73.106" x="1085.38" y="193.8337">Trade-off:</text><text fill="#000000" font-family="Verdana" font-size="13" lengthAdjust="spacing" textLength="152.2422" x="1085.38" y="209.633">&#8226; Fixed at compile time</text></g><g class="entity" data-entity="GMN21" data-source-line="65" data-uid="ent0022" id="entity_GMN21"><path d="M1075.55,294.4773 L1075.55,351.8753 L1338.4401,351.8753 L1338.4401,304.4773 L1328.4401,294.4773 L1075.55,294.4773" fill="#FFFFFF" style="stroke:#000000;stroke-width:1;"/><path d="M1328.4401,294.4773 L1328.4401,304.4773 L1338.4401,304.4773 L1328.4401,294.4773" fill="#FFFFFF" style="stroke:#000000;stroke-width:1;"/><text fill="#000000" font-family="Verdana" font-size="13" font-weight="bold" lengthAdjust="spacing" textLength="240.4302" x="1081.55" y="312.5471">This Project Uses Static Dispatch</text><text fill="#000000" font-family="Verdana" font-size="13" lengthAdjust="spacing" textLength="241.8901" x="1081.55" y="328.3464">All dependency injection via generics</text><text fill="#000000" font-family="Verdana" font-size="13" lengthAdjust="spacing" textLength="174.9731" x="1081.55" y="344.1458">for maximum performance</text></g><!--reverse link Writer_Port to Console_Writer--><g class="link" data-entity-1="Writer_Port" data-entity-2="Console_Writer" data-source-line="20" data-uid="lnk7" id="link_Writer_Port_Console_Writer"><path codeLine="20" d="M333.77,212.7573 C333.77,242.2373 333.77,264.7173 333.77,292.2973" fill="none" id="Writer_Port-backto-Console_Writer" style="stroke:#000000;stroke-width:1;stroke-dasharray:7,7;"/><polygon fill="none" points="333.77,194.7573,327.77,212.7573,339.77,212.7573,333.77,194.7573" style="stroke:#000000;stroke-width:1;"/></g><!--link Greet_UseCase to Writer_Port--><g class="link" data-entity-1="Greet_UseCase" data-entity-2="Writer_Port" data-source-line="21" data-uid="lnk8" id="link_Greet_UseCase_Writer_Port"><path codeLine="21" d="M243.8,156.9873 C255.59,156.9873 249.37,156.9873 260.53,156.9873" fill="none" id="Greet_UseCase-Writer_Port" style="stroke:#000000;stroke-width:1;"/><polygon fill="none" points="231.8,156.9873,237.8,160.9873,243.8,156.9873,237.8,152.9873,231.8,156.9873" style="stroke:#000000;stroke-width:1;"/><polygon fill="#000000" points="266.53,156.9873,257.53,152.9873,261.53,156.9873,257.53,160.9873,266.53,156.9873" style="stroke:#000000;stroke-width:1;"/><text fill="#000000" font-family="Verdana" font-size="13" lengthAdjust="spacing" textLength="54.7866" x="222.16" y="171.0571">depends</text></g><!--link StaticCW to StaticInst--><g class="link" data-entity-1="StaticCW" data-entity-2="StaticInst" data-source-line="40" data-uid="lnk13" id="link_StaticCW_StaticInst"><path codeLine="40" d="M911.09,194.7573 C911.09,219.1673 911.09,245.1173 911.09,271.0373" fill="none" id="StaticCW-to-StaticInst" style="stroke:#000000;stroke-width:1;stroke-dasharray:7,7;"/><polygon fill="#000000" points="911.09,277.0373,915.09,268.0373,911.09,272.0373,907.09,268.0373,911.09,277.0373" style="stroke:#000000;stroke-width:1;"/></g><!--link StaticGUC to StaticInst--><g class="link" data-entity-1="StaticGUC" data-entity-2="StaticInst" data-source-line="41" data-uid="lnk14" id="link_StaticGUC_StaticInst"><path codeLine="41" d="M765.62,211.4573 C765.62,232.6473 765.62,250.6773 765.62,271.0173" fill="none" id="StaticGUC-to-StaticInst" style="stroke:#000000;stroke-width:1;stroke-dasharray:7,7;"/><polygon fill="#000000" points="765.62,277.0173,769.62,268.0173,765.62,272.0173,761.62,268.0173,765.62,277.0173" style="stroke:#000000;stroke-width:1;"/></g><!--link Greet_UseCase to GMN15--><g class="link" data-entity-1="Greet_UseCase" data-entity-2="GMN15" data-source-line="45" data-uid="lnk17" id="link_Greet_UseCase_GMN15"><path d="M129,196.3973 C129,202.5873 129,206.9873 129,206.9873 C129,206.9873 324.2,206.9873 435.53,206.9873" fill="none" id="Greet_UseCase-GMN15" style="stroke:#000000;stroke-width:1;stroke-dasharray:7,7;"/></g><!--link StaticPkg to GMN21--><g class="link" data-entity-1="StaticPkg" data-entity-2="GMN21" data-source-line="65" data-uid="lnk23" id="link_StaticPkg_GMN21"><path d="M1052.1239,322.9873 C1052.1658,322.9873 1052.2078,322.9873 1052.2499,322.9873 C1052.4185,322.9873 1052.5894,322.9873 1052.7625,322.9873 C1058.3025,322.9873 1066.16,322.9873 1075.43,322.9873" fill="none" id="StaticPkg-GMN21" style="stroke:#000000;stroke-width:1;stroke-dasharray:7,7;"/></g><!--SRC=[ZLHjYzD04FwUNp7M3xQH1WG5FSx2cRvu7vIYTnRae6mtasPjiXjsjzSMFV2t-DFy9KusspIfX_YbfFFop3FFpCuJcs61KEPCoC1iX2oPPWNaGg8zb0XAsqm5WHKsH_XicHKSxWsC3v8Lz3aMfcIMPp24CPOe4vJy0DVo6t8hb0GXuIfXGL0olc5hXDvvujsTx7_QIYk8n5pbXqBfCXEc6FI0DMNccpKydKudBoSlu7i0X6fHfumZBBIWp-MSQCBbPMCVZLmSm7CNqF-0nb3v0TaU0lhXEJC6OYMDod5PW_nFnamZskMjmPWPz0b3dtxH9lCihk9hmCaU-POW6wopkj6sZ7wCsjaKqwsaXbgiCpliH575n6bkWeUMmdv8RO5ZLPGYn-7DuohN6KxaoUlfgyaRrrdTSQzBjXKVBqZnT2lTe1l1_wLURuOIjU14gTDU2tHs6nFgkeu3trC37eRU4uRk_qxO38uKl3JzA8e6FjhdXs4jvncRQsaieyrZLNQBGsKd4ZkXCG5cWTVgGRMZ3PMZt7KZ2oAoz4evjp0WSLTx-txERqSGBoBtfn6caJ9Ar4v6enQ5nbjfyeYRygMo26upGANTbGcg_eyFArR6NZZDVl_y1LyiMr4xkLARRUbjxv6LmF9SSQU6jtvKzDJe50Yv3XpWEv8_5TQSm8ubqXptOYLoOGy1hIHKrCu9DkquhCvITXb-HQr0tQFEa2NUDgPnS1e6aOI-OuN9mFi8c6_Qz5s16yqI7AeqFG5FnVxlcPxpNIbhLN4YJ0-ZngCN0tEjgji69FDnNvgdvifS4R_aT0f5Smhl1GE_ljLXI9M6Wkr5iIsWfAkbTC4aRv7v0m00]--></g></svg>