<svg xmlns="http://www.w3.org/2000/svg" xmlns:xlink="http://www.w3.org/1999/xlink" contentStyleType="text/css" data-diagram-type="DESCRIPTION" height="1255px" preserveAspectRatio="none" style="width:2016px;height:1255px;background:#FFFFFF;" version="1.1" viewBox="0 0 2016 1255" width="2016px" zoomAndPan="magnify"><title>hybrid_app_go - Package Structure
Actual Packages in Each Layer</title><defs/><g><g class="title" data-source-line="4"><text fill="#000000" font-family="Verdana" font-size="22" font-weight="bold" lengthAdjust="spacing" textLength="439.2158" x="784.2121" y="37.1182">hybrid_app_go - Package Structure</text><text fill="#000000" font-family="Verdana" font-size="22" font-weight="bold" lengthAdjust="spacing" textLength="374.3867" x="816.6266" y="63.8555">Actual Packages in Each Layer</text></g><!--cluster Bootstrap Layer--><g class="cluster" data-entity="Bootstrap Layer" data-source-line="6" data-uid="ent0002" id="cluster_Bootstrap Layer"><rect fill="#FFEBCD" height="251.59" rx="2.5" ry="2.5" style="stroke:#000000;stroke-width:1;" width="455" x="251.64" y="86.4746"/><path d="M387.1136,86.4746 L387.1136,96.4893 L377.1136,106.4893 L251.64,106.4893" fill="none" style="stroke:#000000;stroke-width:1;"/><text fill="#000000" font-family="Verdana" font-size="14" font-weight="bold" lengthAdjust="spacing" textLength="125.4736" x="254.64" y="101.5498">Bootstrap Layer</text></g><!--cluster Presentation Layer--><g class="cluster" data-entity="Presentation Layer" data-source-line="24" data-uid="ent0007" id="cluster_Presentation Layer"><rect fill="#FFE4E1" height="219.99" rx="2.5" ry="2.5" style="stroke:#000000;stroke-width:1;" width="493" x="785.64" y="102.2746"/><path d="M944.6361,102.2746 L944.6361,112.2893 L934.6361,122.2893 L785.64,122.2893" fill="none" style="stroke:#000000;stroke-width:1;"/><text fill="#000000" font-family="Verdana" font-size="14" font-weight="bold" lengthAdjust="spacing" textLength="148.9961" x="788.64" y="117.3498">Presentation Layer</text></g><!--cluster Infrastructure Layer--><g class="cluster" data-entity="Infrastructure Layer" data-source-line="40" data-uid="ent0012" id="cluster_Infrastructure Layer"><rect fill="#E6F3FF" height="172.59" rx="2.5" ry="2.5" style="stroke:#000000;stroke-width:1;" width="463" x="1547.64" y="125.9746"/><path d="M1718.3666,125.9746 L1718.3666,135.9893 L1708.3666,145.9893 L1547.64,145.9893" fill="none" style="stroke:#000000;stroke-width:1;"/><text fill="#000000" font-family="Verdana" font-size="14" font-weight="bold" lengthAdjust="spacing" textLength="160.7266" x="1550.64" y="141.0498">Infrastructure Layer</text></g><!--cluster Application Layer--><g class="cluster" data-entity="Application Layer" data-source-line="53" data-uid="ent0017" id="cluster_Application Layer"><rect fill="#E8F5E9" height="251.59" rx="2.5" ry="2.5" style="stroke:#000000;stroke-width:1;" width="1548" x="223.64" y="387.0646"/><path d="M370.4203,387.0646 L370.4203,397.0793 L360.4203,407.0793 L223.64,407.0793" fill="none" style="stroke:#000000;stroke-width:1;"/><text fill="#000000" font-family="Verdana" font-size="14" font-weight="bold" lengthAdjust="spacing" textLength="136.7803" x="226.64" y="402.1398">Application Layer</text></g><!--cluster Domain Layer--><g class="cluster" data-entity="Domain Layer" data-source-line="77" data-uid="ent0027" id="cluster_Domain Layer"><rect fill="#FFF9E6" height="109.4" rx="2.5" ry="2.5" style="stroke:#000000;stroke-width:1;" width="810" x="543.64" y="687.6546"/><path d="M662.222,687.6546 L662.222,697.6693 L652.222,707.6693 L543.64,707.6693" fill="none" style="stroke:#000000;stroke-width:1;"/><text fill="#000000" font-family="Verdana" font-size="14" font-weight="bold" lengthAdjust="spacing" textLength="108.582" x="546.64" y="702.7298">Domain Layer</text></g><!--entity BootstrapCLI--><g class="entity" data-entity="BootstrapCLI" data-source-line="7" data-uid="ent0003" id="entity_BootstrapCLI"><rect fill="#FFFFFF" height="37.0146" rx="2.5" ry="2.5" style="stroke:#000000;stroke-width:1;" width="108.4844" x="267.39" y="203.7646"/><text fill="#000000" font-family="Verdana" font-size="14" lengthAdjust="spacing" textLength="88.4844" x="277.39" y="227.8398">bootstrap/cli</text></g><g class="entity" data-entity="GMN4" data-source-line="9" data-uid="ent0005" id="entity_GMN4"><path d="M410.81,122.4746 L410.81,218.2646 L376.2,222.2646 L410.81,226.2646 L410.81,322.0664 A0,0 0 0 0 410.81,322.0664 L690.4643,322.0664 A0,0 0 0 0 690.4643,322.0664 L690.4643,132.4746 L680.4643,122.4746 L410.81,122.4746 A0,0 0 0 0 410.81,122.4746" fill="#FFFFFF" style="stroke:#000000;stroke-width:1;"/><path d="M680.4643,122.4746 L680.4643,132.4746 L690.4643,132.4746 L680.4643,122.4746" fill="#FFFFFF" style="stroke:#000000;stroke-width:1;"/><text fill="#000000" font-family="Verdana" font-size="13" font-weight="bold" lengthAdjust="spacing" textLength="129.1938" x="416.81" y="140.5444">Composition Root</text><text fill="#000000" font-family="Verdana" font-size="13" lengthAdjust="spacing" textLength="159.8848" x="416.81" y="156.3438">- Wires all dependencies</text><text fill="#000000" font-family="Verdana" font-size="13" lengthAdjust="spacing" textLength="145.7549" x="416.81" y="172.1431">- Generic instantiation</text><text fill="#000000" font-family="Verdana" font-size="13" lengthAdjust="spacing" textLength="158.4629" x="416.81" y="187.9424">- Application entry point</text><text fill="#000000" font-family="Verdana" font-size="13" lengthAdjust="spacing" textLength="4.5703" x="416.81" y="203.7417">&#160;</text><text fill="#000000" font-family="Verdana" font-size="13" lengthAdjust="spacing" textLength="40.7837" x="416.81" y="219.541">```go</text><text fill="#000000" font-family="Verdana" font-size="13" lengthAdjust="spacing" textLength="222.936" x="416.81" y="235.3403">uc := usecase.NewGreetUseCase[</text><text fill="#000000" font-family="Verdana" font-size="13" lengthAdjust="spacing" textLength="210.6533" x="425.9506" y="251.1396">*adapter.ConsoleWriter](writer)</text><text fill="#000000" font-family="Verdana" font-size="13" lengthAdjust="spacing" textLength="258.6543" x="416.81" y="266.939">cmd := command.NewGreetCommand[</text><text fill="#000000" font-family="Verdana" font-size="13" lengthAdjust="spacing" textLength="162.4111" x="425.9506" y="282.7383">*usecase.GreetUseCase[</text><text fill="#000000" font-family="Verdana" font-size="13" lengthAdjust="spacing" textLength="193.3877" x="435.0913" y="298.5376">*adapter.ConsoleWriter]](uc)</text><text fill="#000000" font-family="Verdana" font-size="13" lengthAdjust="spacing" textLength="24.7939" x="416.81" y="314.3369">```</text></g><!--entity PresentationGreet--><g class="entity" data-entity="PresentationGreet" data-source-line="25" data-uid="ent0008" id="entity_PresentationGreet"><rect fill="#FFFFFF" height="37.0146" rx="2.5" ry="2.5" style="stroke:#000000;stroke-width:1;" width="204.8779" x="801.2" y="203.7646"/><text fill="#000000" font-family="Verdana" font-size="14" lengthAdjust="spacing" textLength="184.8779" x="811.2" y="227.8398">presentation/cli/command</text></g><g class="entity" data-entity="GMN9" data-source-line="27" data-uid="ent0010" id="entity_GMN9"><path d="M1041.02,138.2746 L1041.02,218.2646 L1006.32,222.2646 L1041.02,226.2646 L1041.02,306.2678 A0,0 0 0 0 1041.02,306.2678 L1262.2568,306.2678 A0,0 0 0 0 1262.2568,306.2678 L1262.2568,148.2746 L1252.2568,138.2746 L1041.02,138.2746 A0,0 0 0 0 1041.02,138.2746" fill="#FFFFFF" style="stroke:#000000;stroke-width:1;"/><path d="M1252.2568,138.2746 L1252.2568,148.2746 L1262.2568,148.2746 L1252.2568,138.2746" fill="#FFFFFF" style="stroke:#000000;stroke-width:1;"/><text fill="#000000" font-family="Verdana" font-size="13" font-weight="bold" lengthAdjust="spacing" textLength="91.0698" x="1047.02" y="156.3444">Depends on:</text><text fill="#000000" font-family="Verdana" font-size="13" lengthAdjust="spacing" textLength="150.9917" x="1047.02" y="172.1438">- application/command</text><text fill="#000000" font-family="Verdana" font-size="13" lengthAdjust="spacing" textLength="163.3569" x="1047.02" y="187.9431">- application/port/inward</text><text fill="#000000" font-family="Verdana" font-size="13" lengthAdjust="spacing" textLength="5.9033" x="1047.02" y="203.7424">-</text><text fill="#000000" font-family="Verdana" font-size="13" font-weight="bold" lengthAdjust="spacing" textLength="126.5405" x="1057.4936" y="203.7424">application/error</text><text fill="#000000" font-family="Verdana" font-size="13" lengthAdjust="spacing" textLength="17" x="1188.6045" y="203.7424">&#9989;</text><text fill="#000000" font-family="Verdana" font-size="13" lengthAdjust="spacing" textLength="4.5703" x="1047.02" y="219.5417">&#160;</text><text fill="#000000" font-family="Verdana" font-size="13" font-weight="bold" lengthAdjust="spacing" textLength="109.1733" x="1047.02" y="235.341">Cannot access:</text><text fill="#000000" font-family="Verdana" font-size="13" lengthAdjust="spacing" textLength="149.3423" x="1047.02" y="251.1403">&#10060; domain/* packages</text><text fill="#000000" font-family="Verdana" font-size="13" lengthAdjust="spacing" textLength="4.5703" x="1047.02" y="266.9396">&#160;</text><text fill="#000000" font-family="Verdana" font-size="13" font-weight="bold" lengthAdjust="spacing" textLength="173.2402" x="1047.02" y="282.739">Generic over GreetPort:</text><text fill="#000000" font-family="Verdana" font-size="13" lengthAdjust="spacing" textLength="200.2368" x="1047.02" y="298.5383">GreetCommand[UC GreetPort]</text></g><!--entity InfraConsole--><g class="entity" data-entity="InfraConsole" data-source-line="41" data-uid="ent0013" id="entity_InfraConsole"><rect fill="#FFFFFF" height="37.0146" rx="2.5" ry="2.5" style="stroke:#000000;stroke-width:1;" width="176.085" x="1563.59" y="203.7646"/><text fill="#000000" font-family="Verdana" font-size="14" lengthAdjust="spacing" textLength="156.085" x="1573.59" y="227.8398">infrastructure/adapter</text></g><g class="entity" data-entity="GMN14" data-source-line="43" data-uid="ent0015" id="entity_GMN14"><path d="M1774.47,161.9746 L1774.47,218.2646 L1739.92,222.2646 L1774.47,226.2646 L1774.47,282.5698 A0,0 0 0 0 1774.47,282.5698 L1994.7991,282.5698 A0,0 0 0 0 1994.7991,282.5698 L1994.7991,171.9746 L1984.7991,161.9746 L1774.47,161.9746 A0,0 0 0 0 1774.47,161.9746" fill="#FFFFFF" style="stroke:#000000;stroke-width:1;"/><path d="M1984.7991,161.9746 L1984.7991,171.9746 L1994.7991,171.9746 L1984.7991,161.9746" fill="#FFFFFF" style="stroke:#000000;stroke-width:1;"/><text fill="#000000" font-family="Verdana" font-size="13" font-weight="bold" lengthAdjust="spacing" textLength="91.0698" x="1780.47" y="180.0444">Depends on:</text><text fill="#000000" font-family="Verdana" font-size="13" lengthAdjust="spacing" textLength="172.8022" x="1780.47" y="195.8438">- application/port/outward</text><text fill="#000000" font-family="Verdana" font-size="13" lengthAdjust="spacing" textLength="171.6924" x="1780.47" y="211.6431">- domain/error (direct) &#9989;</text><text fill="#000000" font-family="Verdana" font-size="13" lengthAdjust="spacing" textLength="126.8516" x="1780.47" y="227.4424">- application/model</text><text fill="#000000" font-family="Verdana" font-size="13" lengthAdjust="spacing" textLength="4.5703" x="1780.47" y="243.2417">&#160;</text><text fill="#000000" font-family="Verdana" font-size="13" font-weight="bold" lengthAdjust="spacing" textLength="175.4048" x="1780.47" y="259.041">Implements WriterPort:</text><text fill="#000000" font-family="Verdana" font-size="13" lengthAdjust="spacing" textLength="199.3291" x="1780.47" y="274.8403">ConsoleWriter.Write(ctx, msg)</text></g><!--entity AppError--><g class="entity" data-entity="AppError" data-source-line="54" data-uid="ent0018" id="entity_AppError"><rect fill="#FFFF99" height="37.0146" rx="2.5" ry="2.5" style="stroke:#000000;stroke-width:1;" width="137.0723" x="240.1" y="504.3546"/><text fill="#000000" font-family="Verdana" font-size="14" lengthAdjust="spacing" textLength="117.0723" x="250.1" y="528.4298">application/error</text></g><!--entity AppCommand--><g class="entity" data-entity="AppCommand" data-source-line="55" data-uid="ent0019" id="entity_AppCommand"><rect fill="#FFFFFF" height="37.0146" rx="2.5" ry="2.5" style="stroke:#000000;stroke-width:1;" width="171.3271" x="953.97" y="504.3546"/><text fill="#000000" font-family="Verdana" font-size="14" lengthAdjust="spacing" textLength="151.3271" x="963.97" y="528.4298">application/command</text></g><!--entity AppUsecase--><g class="entity" data-entity="AppUsecase" data-source-line="56" data-uid="ent0020" id="entity_AppUsecase"><rect fill="#FFFFFF" height="37.0146" rx="2.5" ry="2.5" style="stroke:#000000;stroke-width:1;" width="158.1406" x="760.56" y="504.3546"/><text fill="#000000" font-family="Verdana" font-size="14" lengthAdjust="spacing" textLength="138.1406" x="770.56" y="528.4298">application/usecase</text></g><!--entity AppOutward--><g class="entity" data-entity="AppOutward" data-source-line="57" data-uid="ent0021" id="entity_AppOutward"><rect fill="#FFFFFF" height="37.0146" rx="2.5" ry="2.5" style="stroke:#000000;stroke-width:1;" width="194.8154" x="1380.23" y="504.3546"/><text fill="#000000" font-family="Verdana" font-size="14" lengthAdjust="spacing" textLength="174.8154" x="1390.23" y="528.4298">application/port/outward</text></g><!--entity AppInward--><g class="entity" data-entity="AppInward" data-source-line="58" data-uid="ent0022" id="entity_AppInward"><rect fill="#FFFFFF" height="37.0146" rx="2.5" ry="2.5" style="stroke:#000000;stroke-width:1;" width="184.6436" x="1160.31" y="504.3546"/><text fill="#000000" font-family="Verdana" font-size="14" lengthAdjust="spacing" textLength="164.6436" x="1170.31" y="528.4298">application/port/inward</text></g><!--entity AppModel--><g class="entity" data-entity="AppModel" data-source-line="59" data-uid="ent0023" id="entity_AppModel"><rect fill="#FFFFFF" height="37.0146" rx="2.5" ry="2.5" style="stroke:#000000;stroke-width:1;" width="145.3301" x="1609.97" y="504.3546"/><text fill="#000000" font-family="Verdana" font-size="14" lengthAdjust="spacing" textLength="125.3301" x="1619.97" y="528.4298">application/model</text></g><g class="entity" data-entity="GMN24" data-source-line="62" data-uid="ent0025" id="entity_GMN24"><path d="M412.04,423.0646 L412.04,518.8646 L377.44,522.8646 L412.04,526.8646 L412.04,622.6564 A0,0 0 0 0 412.04,622.6564 L725.2353,622.6564 A0,0 0 0 0 725.2353,622.6564 L725.2353,433.0646 L715.2353,423.0646 L412.04,423.0646 A0,0 0 0 0 412.04,423.0646" fill="#FFFFFF" style="stroke:#000000;stroke-width:1;"/><path d="M715.2353,423.0646 L715.2353,433.0646 L725.2353,433.0646 L715.2353,423.0646" fill="#FFFFFF" style="stroke:#000000;stroke-width:1;"/><text fill="#000000" font-family="Verdana" font-size="13" font-weight="bold" lengthAdjust="spacing" textLength="184.9897" x="418.04" y="441.1344">Re-exports domain/error</text><text fill="#000000" font-family="Verdana" font-size="13" lengthAdjust="spacing" textLength="171.3359" x="418.04" y="456.9338">For Presentation layer use</text><text fill="#000000" font-family="Verdana" font-size="13" lengthAdjust="spacing" textLength="4.5703" x="418.04" y="472.7331">&#160;</text><text fill="#000000" font-family="Verdana" font-size="13" lengthAdjust="spacing" textLength="40.7837" x="418.04" y="488.5324">```go</text><text fill="#000000" font-family="Verdana" font-size="13" lengthAdjust="spacing" textLength="197.8374" x="418.04" y="504.3317">import domerr "domain/error"</text><text fill="#000000" font-family="Verdana" font-size="13" lengthAdjust="spacing" textLength="4.5703" x="418.04" y="520.131">&#160;</text><text fill="#000000" font-family="Verdana" font-size="13" lengthAdjust="spacing" textLength="233.8159" x="418.04" y="535.9303">type ErrorType = domerr.ErrorType</text><text fill="#000000" font-family="Verdana" font-size="13" lengthAdjust="spacing" textLength="228.522" x="418.04" y="551.7296">type ErrorKind = domerr.ErrorKind</text><text fill="#000000" font-family="Verdana" font-size="13" lengthAdjust="spacing" textLength="254.0903" x="418.04" y="567.529">type Result[T any] = domerr.Result[T]</text><text fill="#000000" font-family="Verdana" font-size="13" lengthAdjust="spacing" textLength="4.5703" x="418.04" y="583.3283">&#160;</text><text fill="#000000" font-family="Verdana" font-size="13" lengthAdjust="spacing" textLength="292.1953" x="418.04" y="599.1276">var ValidationError = domerr.ValidationError</text><text fill="#000000" font-family="Verdana" font-size="13" lengthAdjust="spacing" textLength="24.7939" x="418.04" y="614.9269">```</text></g><!--entity DomainError--><g class="entity" data-entity="DomainError" data-source-line="78" data-uid="ent0028" id="entity_DomainError"><rect fill="#FFFFFF" height="37.0146" rx="2.5" ry="2.5" style="stroke:#000000;stroke-width:1;" width="113.0645" x="560.1" y="733.8446"/><text fill="#000000" font-family="Verdana" font-size="14" lengthAdjust="spacing" textLength="93.0645" x="570.1" y="757.9198">domain/error</text></g><!--entity DomainResult--><g class="entity" data-entity="DomainResult" data-source-line="79" data-uid="ent0029" id="entity_DomainResult"><rect fill="#FFFFFF" height="37.0146" rx="2.5" ry="2.5" style="stroke:#000000;stroke-width:1;" width="183.085" x="1154.09" y="733.8446"/><text fill="#000000" font-family="Verdana" font-size="14" lengthAdjust="spacing" textLength="163.085" x="1164.09" y="757.9198">domain/error.Result[T]</text></g><!--entity DomainPerson--><g class="entity" data-entity="DomainPerson" data-source-line="80" data-uid="ent0030" id="entity_DomainPerson"><rect fill="#FFFFFF" height="37.0146" rx="2.5" ry="2.5" style="stroke:#000000;stroke-width:1;" width="159.2275" x="960.02" y="733.8446"/><text fill="#000000" font-family="Verdana" font-size="14" lengthAdjust="spacing" textLength="139.2275" x="970.02" y="757.9198">domain/valueobject</text></g><g class="entity" data-entity="GMN31" data-source-line="83" data-uid="ent0032" id="entity_GMN31"><path d="M708.28,723.6546 L708.28,748.3546 L673.67,752.3546 L708.28,756.3546 L708.28,781.0526 A0,0 0 0 0 708.28,781.0526 L924.9909,781.0526 A0,0 0 0 0 924.9909,781.0526 L924.9909,733.6546 L914.9909,723.6546 L708.28,723.6546 A0,0 0 0 0 708.28,723.6546" fill="#FFFFFF" style="stroke:#000000;stroke-width:1;"/><path d="M914.9909,723.6546 L914.9909,733.6546 L924.9909,733.6546 L914.9909,723.6546" fill="#FFFFFF" style="stroke:#000000;stroke-width:1;"/><text fill="#000000" font-family="Verdana" font-size="13" font-weight="bold" lengthAdjust="spacing" textLength="195.7109" x="714.28" y="741.7244">Zero external module deps</text><text fill="#000000" font-family="Verdana" font-size="13" lengthAdjust="spacing" textLength="116.6318" x="714.28" y="757.5238">Pure domain logic</text><text fill="#000000" font-family="Verdana" font-size="13" lengthAdjust="spacing" textLength="139.7944" x="714.28" y="773.3231">Canonical error types</text></g><!--link PresentationGreet to AppCommand--><g class="link" data-entity-1="PresentationGreet" data-entity-2="AppCommand" data-source-line="90" data-uid="lnk34" id="link_PresentationGreet_AppCommand"><path d="M911.74,241.0546 C935.92,294.1646 1004.9526,445.7245 1029.0926,498.7145" fill="none" id="PresentationGreet-to-AppCommand" style="stroke:#000000;stroke-width:1;"/><polygon fill="#000000" points="1031.58,504.1746,1031.489,494.3262,1029.5072,499.6245,1024.2088,497.6427,1031.58,504.1746" style="stroke:#000000;stroke-width:1;"/><text fill="#000000" font-family="Verdana" font-size="13" lengthAdjust="spacing" textLength="62.3467" x="970.6" y="368.1344">uses DTO</text></g><!--link PresentationGreet to AppInward--><g class="link" data-entity-1="PresentationGreet" data-entity-2="AppInward" data-source-line="91" data-uid="lnk35" id="link_PresentationGreet_AppInward"><path d="M916.21,241.2046 C935.98,268.0446 976.93,318.4646 1023.64,346.0646 C1047.26,360.0246 1119.87,363.7446 1142.64,379.0646 C1191.44,411.9146 1225.1079,468.2086 1241.0279,498.6286" fill="none" id="PresentationGreet-to-AppInward" style="stroke:#000000;stroke-width:1;"/><polygon fill="#000000" points="1243.81,503.9446,1243.1809,494.1159,1241.4916,499.5146,1236.0929,497.8253,1243.81,503.9446" style="stroke:#000000;stroke-width:1;"/><text fill="#000000" font-family="Verdana" font-size="13" lengthAdjust="spacing" textLength="96.7256" x="1122.42" y="368.1344">uses GreetPort</text></g><!--link PresentationGreet to AppError--><g class="link" data-entity-1="PresentationGreet" data-entity-2="AppError" data-source-line="92" data-uid="lnk36" id="link_PresentationGreet_AppError"><path d="M882.29,241.2246 C847.85,269.0546 776.76,321.9346 706.64,346.0646 C574.78,391.4346 512.25,304.1646 394.64,379.0646 C348.26,408.6046 325.1403,467.2279 315.3803,498.4479" fill="none" id="PresentationGreet-to-AppError" style="stroke:#000000;stroke-width:1;"/><polygon fill="#000000" points="313.59,504.1746,320.0932,496.7781,315.0819,499.4024,312.4576,494.3911,313.59,504.1746" style="stroke:#000000;stroke-width:1;"/><text fill="#000000" font-family="Verdana" font-size="13" lengthAdjust="spacing" textLength="51.0869" x="677.26" y="368.1344">uses &#9989;</text></g><!--link InfraConsole to AppOutward--><g class="link" data-entity-1="InfraConsole" data-entity-2="AppOutward" data-source-line="94" data-uid="lnk37" id="link_InfraConsole_AppOutward"><path d="M1641.27,241.0546 C1610.32,294.1646 1521.841,446.0006 1490.961,498.9906" fill="none" id="InfraConsole-to-AppOutward" style="stroke:#000000;stroke-width:1;"/><polygon fill="#000000" points="1487.94,504.1746,1495.9275,498.4126,1490.4575,499.8546,1489.0155,494.3846,1487.94,504.1746" style="stroke:#000000;stroke-width:1;"/><text fill="#000000" font-family="Verdana" font-size="13" lengthAdjust="spacing" textLength="147.4878" x="1576.05" y="368.1344">implements WriterPort</text></g><!--link InfraConsole to DomainError--><g class="link" data-entity-1="InfraConsole" data-entity-2="DomainError" data-source-line="95" data-uid="lnk38" id="link_InfraConsole_DomainError"><path d="M1667.93,241.2646 C1698.2,275.1646 1761.02,347.8746 1771.64,379.0646 C1809.97,491.6446 1852.92,559.8346 1771.64,646.6546 C1742.79,677.4646 1434.81,670.0246 1392.64,671.6546 C1373.15,672.4146 708.67,672.2346 690.64,679.6546 C664,690.6146 645.1788,711.3388 632.2188,728.7788" fill="none" id="InfraConsole-to-DomainError" style="stroke:#000000;stroke-width:1;"/><polygon fill="#000000" points="628.64,733.5946,637.2187,728.7567,631.6223,729.5814,630.7976,723.985,628.64,733.5946" style="stroke:#000000;stroke-width:1;"/><text fill="#000000" font-family="Verdana" font-size="13" lengthAdjust="spacing" textLength="51.0869" x="1818.85" y="528.4344">uses &#9989;</text></g><!--link AppCommand to DomainPerson--><g class="link" data-entity-1="AppCommand" data-entity-2="DomainPerson" data-source-line="97" data-uid="lnk39" id="link_AppCommand_DomainPerson"><path d="M1039.64,541.7146 C1039.64,584.2346 1039.64,685.1446 1039.64,727.5846" fill="none" id="AppCommand-to-DomainPerson" style="stroke:#000000;stroke-width:1;"/><polygon fill="#000000" points="1039.64,733.5846,1043.64,724.5846,1039.64,728.5846,1035.64,724.5846,1039.64,733.5846" style="stroke:#000000;stroke-width:1;"/><text fill="#000000" font-family="Verdana" font-size="13" lengthAdjust="spacing" textLength="29.5166" x="1040.64" y="668.7244">uses</text></g><!--link AppUsecase to DomainPerson--><g class="link" data-entity-1="AppUsecase" data-entity-2="DomainPerson" data-source-line="98" data-uid="lnk40" id="link_AppUsecase_DomainPerson"><path d="M852.87,541.8346 C871.02,566.2046 905,610.8046 936.64,646.6546 C964.64,678.3946 995.3125,708.8282 1016.4625,729.2382" fill="none" id="AppUsecase-to-DomainPerson" style="stroke:#000000;stroke-width:1;"/><polygon fill="#000000" points="1020.78,733.4046,1017.0814,724.2766,1017.1821,729.9326,1011.5261,730.0333,1020.78,733.4046" style="stroke:#000000;stroke-width:1;"/><text fill="#000000" font-family="Verdana" font-size="13" lengthAdjust="spacing" textLength="58.1826" x="959.33" y="668.7244">validates</text></g><!--link AppOutward to DomainResult--><g class="link" data-entity-1="AppOutward" data-entity-2="DomainResult" data-source-line="99" data-uid="lnk41" id="link_AppOutward_DomainResult"><path d="M1461.73,541.8146 C1439.96,566.1546 1399.39,610.7246 1362.64,646.6546 C1330.28,678.2846 1295.245,709.0192 1271.405,729.4592" fill="none" id="AppOutward-to-DomainResult" style="stroke:#000000;stroke-width:1;"/><polygon fill="#000000" points="1266.85,733.3646,1276.2861,730.5432,1270.6458,730.1101,1271.0789,724.4699,1266.85,733.3646" style="stroke:#000000;stroke-width:1;"/><text fill="#000000" font-family="Verdana" font-size="13" lengthAdjust="spacing" textLength="29.5166" x="1354.49" y="668.7244">uses</text></g><!--link AppInward to DomainResult--><g class="link" data-entity-1="AppInward" data-entity-2="DomainResult" data-source-line="100" data-uid="lnk42" id="link_AppInward_DomainResult"><path d="M1252.09,541.7146 C1250.78,584.2346 1247.6751,685.1475 1246.3651,727.5875" fill="none" id="AppInward-to-DomainResult" style="stroke:#000000;stroke-width:1;"/><polygon fill="#000000" points="1246.18,733.5846,1250.4558,724.7123,1246.3343,728.587,1242.4596,724.4655,1246.18,733.5846" style="stroke:#000000;stroke-width:1;"/><text fill="#000000" font-family="Verdana" font-size="13" lengthAdjust="spacing" textLength="29.5166" x="1249.51" y="668.7244">uses</text></g><!--link AppError to DomainError--><g class="link" data-entity-1="AppError" data-entity-2="DomainError" data-source-line="101" data-uid="lnk43" id="link_AppError_DomainError"><path d="M317.18,541.4846 C330.54,567.4846 358.61,616.2946 394.64,646.6546 C443.84,688.1246 506.569,715.1062 554.399,731.9062" fill="none" id="AppError-to-DomainError" style="stroke:#000000;stroke-width:1;"/><polygon fill="#000000" points="560.06,733.8946,552.8942,727.1381,555.3425,732.2376,550.243,734.686,560.06,733.8946" style="stroke:#000000;stroke-width:1;"/><text fill="#000000" font-family="Verdana" font-size="13" lengthAdjust="spacing" textLength="68.0659" x="427.71" y="668.7244">re-exports</text></g><!--link PresentationGreet to DomainError--><g class="link" data-entity-1="PresentationGreet" data-entity-2="DomainError" data-source-line="104" data-uid="lnk44" id="link_PresentationGreet_DomainError"><path d="M883.33,241.1846 C849.51,269.7446 778.24,324.5646 706.64,346.0646 C641.1,365.7446 138.03,328.7646 91.64,379.0646 C11,466.4846 16.21,554.7046 91.64,646.6546 C150.43,718.3346 430.4294,741.5496 553.8094,748.4496" fill="none" id="PresentationGreet-to-DomainError" style="stroke:#FF0000;stroke-width:1;stroke-dasharray:7,7;"/><polygon fill="#FF0000" points="559.8,748.7846,551.0374,744.2883,554.8078,748.5054,550.5907,752.2758,559.8,748.7846" style="stroke:#FF0000;stroke-width:1;"/><text fill="#000000" font-family="Verdana" font-size="13" lengthAdjust="spacing" textLength="100.6748" x="107.5882" y="520.4344">&#10060; FORBIDDEN</text><text fill="#000000" font-family="Verdana" font-size="13" lengthAdjust="spacing" textLength="130.5713" x="92.64" y="536.2338">No transitive access</text></g><g class="legend" data-source-line="106"><rect fill="none" height="435.3662" rx="7.5" ry="7.5" style="stroke:#000000;stroke-width:1;" width="514" x="746.82" y="807.0546"/><text fill="#000000" font-family="Verdana" font-size="14" font-weight="bold" lengthAdjust="spacing" textLength="224.6494" x="751.82" y="826.1298">Package Naming Convention</text><text fill="#000000" font-family="Verdana" font-size="14" lengthAdjust="spacing" textLength="504" x="751.82" y="843.1445">&#9552;&#9552;&#9552;&#9552;&#9552;&#9552;&#9552;&#9552;&#9552;&#9552;&#9552;&#9552;&#9552;&#9552;&#9552;&#9552;&#9552;&#9552;&#9552;&#9552;&#9552;&#9552;&#9552;&#9552;&#9552;&#9552;&#9552;&#9552;&#9552;&#9552;&#9552;&#9552;&#9552;&#9552;&#9552;&#9552;</text><text fill="#000000" font-family="Verdana" font-size="14" lengthAdjust="spacing" textLength="253.0049" x="751.82" y="860.1591">All packages use hierarchical paths:</text><text fill="#000000" font-family="Verdana" font-size="14" lengthAdjust="spacing" textLength="233.1602" x="751.82" y="877.1738">&#8226; parent/child/grandchild pattern</text><text fill="#000000" font-family="Verdana" font-size="14" lengthAdjust="spacing" textLength="210.9229" x="751.82" y="894.1884">&#8226; Lowercase with underscores</text><text fill="#000000" font-family="Verdana" font-size="14" lengthAdjust="spacing" textLength="156.4404" x="751.82" y="911.203">&#8226; Go module per layer</text><text fill="#000000" font-family="Verdana" font-size="14" lengthAdjust="spacing" textLength="4.9219" x="751.82" y="928.2177">&#160;</text><text fill="#000000" font-family="Verdana" font-size="14" font-weight="bold" lengthAdjust="spacing" textLength="72.5977" x="751.82" y="945.2323">Example:</text><text fill="#000000" font-family="Verdana" font-size="14" lengthAdjust="spacing" textLength="220.9648" x="751.82" y="962.247">&#8226; Package: domain/valueobject</text><text fill="#000000" font-family="Verdana" font-size="14" lengthAdjust="spacing" textLength="117.9063" x="751.82" y="979.2616">&#8226; File: person.go</text><text fill="#000000" font-family="Verdana" font-size="14" lengthAdjust="spacing" textLength="105.2188" x="751.82" y="996.2763">&#8226; Type: Person</text><text fill="#000000" font-family="Verdana" font-size="14" lengthAdjust="spacing" textLength="4.9219" x="751.82" y="1013.2909">&#160;</text><text fill="#000000" font-family="Verdana" font-size="14" font-weight="bold" lengthAdjust="spacing" textLength="144.4844" x="751.82" y="1030.3056">Dependency Rules</text><text fill="#000000" font-family="Verdana" font-size="14" lengthAdjust="spacing" textLength="504" x="751.82" y="1047.3202">&#9552;&#9552;&#9552;&#9552;&#9552;&#9552;&#9552;&#9552;&#9552;&#9552;&#9552;&#9552;&#9552;&#9552;&#9552;&#9552;&#9552;&#9552;&#9552;&#9552;&#9552;&#9552;&#9552;&#9552;&#9552;&#9552;&#9552;&#9552;&#9552;&#9552;&#9552;&#9552;&#9552;&#9552;&#9552;&#9552;</text><text fill="#000000" font-family="Verdana" font-size="14" lengthAdjust="spacing" textLength="297.2637" x="751.82" y="1064.3349">&#9989; Presentation &#8594; application/* packages</text><text fill="#000000" font-family="Verdana" font-size="14" lengthAdjust="spacing" textLength="395.5645" x="751.82" y="1081.3495">&#9989; Infrastructure &#8594; application/* + domain/* packages</text><text fill="#000000" font-family="Verdana" font-size="14" lengthAdjust="spacing" textLength="262.4824" x="751.82" y="1098.3642">&#9989; Application &#8594; domain/* packages</text><text fill="#000000" font-family="Verdana" font-size="14" lengthAdjust="spacing" textLength="363.0049" x="751.82" y="1115.3788">&#10060; Presentation &#8594; domain/* packages (forbidden!)</text><text fill="#000000" font-family="Verdana" font-size="14" lengthAdjust="spacing" textLength="4.9219" x="751.82" y="1132.3935">&#160;</text><text fill="#000000" font-family="Verdana" font-size="14" font-weight="bold" lengthAdjust="spacing" textLength="230.9316" x="751.82" y="1149.4081">Static Dispatch with Generics</text><text fill="#000000" font-family="Verdana" font-size="14" lengthAdjust="spacing" textLength="504" x="751.82" y="1166.4228">&#9552;&#9552;&#9552;&#9552;&#9552;&#9552;&#9552;&#9552;&#9552;&#9552;&#9552;&#9552;&#9552;&#9552;&#9552;&#9552;&#9552;&#9552;&#9552;&#9552;&#9552;&#9552;&#9552;&#9552;&#9552;&#9552;&#9552;&#9552;&#9552;&#9552;&#9552;&#9552;&#9552;&#9552;&#9552;&#9552;</text><text fill="#000000" font-family="Verdana" font-size="14" lengthAdjust="spacing" textLength="364.3008" x="751.82" y="1183.4374">&#8226; GreetUseCase[W WriterPort] - generic over writer</text><text fill="#000000" font-family="Verdana" font-size="14" lengthAdjust="spacing" textLength="397.4619" x="751.82" y="1200.4521">&#8226; GreetCommand[UC GreetPort] - generic over use case</text><text fill="#000000" font-family="Verdana" font-size="14" lengthAdjust="spacing" textLength="283.2744" x="751.82" y="1217.4667">&#8226; Concrete types known at compile time</text><text fill="#000000" font-family="Verdana" font-size="14" lengthAdjust="spacing" textLength="258.2686" x="751.82" y="1234.4814">&#8226; Zero runtime overhead (no vtable)</text></g><!--SRC=[nLVFRoCr5BxFN_4sUo099142LZJI8hL9PbLHsge_gCHkj7LctCHqnXxPJj888N614mU4n0qk_6dzItYsnnDFCYsSM2dIpDZViv-_zxtdbnTwGNCAHKOOZzGzumMH98T4v8NWbEjBlSaeI9femkSPZIBDD0uiDZF9qlUaADxF1VJWd2JtP4xXKijbefUIlkE7-2IPdr70E4n8ie0Jig4oYkvm6mgj8o6qqf8KRhm5B-DuSZGQmmyHRBs0ripZ1ad6Ma0KL9QZasF4Sg7HJpPVQ11tkvC0tUx8BAQOPeB31KvtktQY1pTCediaoo2b1UKfvGcZgfnyGpcLB47l5JAW6J7svTnXKMGiiIE0JieD589n7TdfszlRkR1lomI6hs6fQ48KxP_IzHj9gRvMT8JVRoq4_ICfAJIL_P7WIcJqHZBychRNzjcng2HFpKh8IavuMgqqSj_LIdwdfcsUt6ZQNYOTxpW-aGTBQVHZ5Qfpf0cFwSuRHElpoQUxqIe2g0dOeFJP1YvSn_gu5xqcX0dXsCP7WU33Adfa6mI_IyDC8QGUCBucqizsk-4ybLB8RXSU__mvydeX7Bq2aYHKAR_Vur-_GYfoJ9P15ufIsjx2QqMig0JhzpbkwqrhiReURG7JPhgFERuedqyLuPDNyMTnl4iugu47POmjtNQTCjXxJEzC_XUIBPLYgGCkIqOiYT1EcIaN7SlbldakKffvnexp8iFomxK2fyEGi9f0-_RHJlJ39v2hUQUPip0ZAyA-ZB-O7EmIjXTyonNQJ-mXKDTnV73mj4qeQBGQLSfx0bycfSTVky-dyI7BtkYi8lqv8wToRtFCdpUnuV3WRtniwYBnh9H1kw0z-c2sKhN0br6BaRrQfSXC74pvswsBB3UBc3NG7bhXMYs7rPk2WjtwohozBh7zQcW7zJL3ITHHPcYBkg1gcUctLq3uPhf5-k6fstP597nBCfRQ0pX1LDYTYUTBvjYUAIYMyS7arQuKQmStaN1MVlada5kd0nitrcYq8jcIYjdtc9g1mJcL2k-plP3NNJ1H_uvA0VG1Kv7ZhOwoMM8RW1UcAkD-RegKsmioCMU9os721KUjPU2AWuc2sk7g8nW7zowq4tIRofwY5DkHkIaVU3NRcnMSjZlHtWK1lLIiUU-h81TXQ4I71xqwUnxlKiJ3gxByl95JHMbZRusmb8R8CciHovggNRDTm7zja-1uTQWBP8cDjXNcATZAoTXXlOjrh1DJi6H9rB-WdDFD1v5LwJ1Xnr8nOod6VTjuRQ2j5cXf5BfY8hFaDyMxRwNQhs_mKbB3ixcauxEBe-FnU7BwZfyAm4wGczPlHSlxF8eoEZSYd0cjHHuPXViUzfJaHdSOaXNkYJjQXJ_-yTl_ziFj3etcVUkCrCA2KKbaih39L12zK4FZrKz_uuT4FmSubQM3EPuqjQy6PBArH9s8DPLM4Mkc5x14kgLAXBJfQ01lXC_g0kjrvhfqmylaWHZXkclP84kYXh1VMaf4p11lra6nzMsvDwEcOWzXMt9yhs7ZVe4xgm_1DEPL_S9w_ENtMiSID7eElTEPxUC_RkWHdMdOe1YxHXpATy-XFI2qxtpwlEWuDYyDFe4nKnXw_ATb0rqsfH-6MYEhy5_8JL3ufbZPvs77xFxgX6QDtVAkcKcEifSoXfYsYQHubzch1kwvhIRQteYeIj0izr1xfSabDqDshGKbARIvW9Kciuns8XIdgnFHFm00]--></g></svg>